<?xml version="1.0" encoding="UTF-8"?>
<svg id="Camada_2" data-name="Camada 2" xmlns="http://www.w3.org/2000/svg" viewBox="0 0 661.28 116.21">
  <defs>
    <style>
      .cls-1 {
        fill: #F5F5F5;
      }
    </style>
  </defs>
  <g id="Camada_1-2" data-name="Camada 1">
    <g>
      <g>
        <path class="cls-1" d="M257.55,85.46c-3.6,0-6.83-.7-9.7-2.1-2.87-1.4-5.1-3.3-6.7-5.7-1.6-2.4-2.4-5.1-2.4-8.1,0-3.6.93-6.45,2.8-8.55,1.87-2.1,4.9-3.6,9.1-4.5s9.77-1.35,16.7-1.35h5.3v7.8h-5.2c-3.4,0-6.15.18-8.25.55-2.1.37-3.6.98-4.5,1.85-.9.87-1.35,2.07-1.35,3.6,0,1.87.65,3.4,1.95,4.6,1.3,1.2,3.18,1.8,5.65,1.8,1.93,0,3.65-.45,5.15-1.35,1.5-.9,2.68-2.13,3.55-3.7.87-1.57,1.3-3.35,1.3-5.35v-11.5c0-2.93-.67-5.02-2-6.25-1.33-1.23-3.6-1.85-6.8-1.85-1.8,0-3.75.22-5.85.65-2.1.43-4.42,1.15-6.95,2.15-1.47.67-2.77.82-3.9.45-1.13-.37-2-1.03-2.6-2-.6-.97-.9-2.03-.9-3.2s.33-2.3,1-3.4c.67-1.1,1.77-1.92,3.3-2.45,3.13-1.27,6.08-2.13,8.85-2.6,2.77-.47,5.32-.7,7.65-.7,5.13,0,9.35.75,12.65,2.25s5.78,3.8,7.45,6.9c1.67,3.1,2.5,7.08,2.5,11.95v22.2c0,2.47-.6,4.37-1.8,5.7-1.2,1.33-2.93,2-5.2,2s-4.02-.67-5.25-2c-1.23-1.33-1.85-3.23-1.85-5.7v-3.7l.7.6c-.4,2.27-1.25,4.22-2.55,5.85-1.3,1.63-2.95,2.9-4.95,3.8-2,.9-4.3,1.35-6.9,1.35Z"/>
        <path class="cls-1" d="M301.95,85.26c-2.53,0-4.47-.67-5.8-2-1.33-1.33-2-3.23-2-5.7v-35.5c0-2.47.65-4.35,1.95-5.65,1.3-1.3,3.12-1.95,5.45-1.95s4.23.65,5.5,1.95c1.27,1.3,1.9,3.18,1.9,5.65v5.2h-1c.8-4,2.57-7.1,5.3-9.3,2.73-2.2,6.27-3.43,10.6-3.7,1.67-.13,2.95.28,3.85,1.25.9.97,1.38,2.55,1.45,4.75.13,2.07-.28,3.7-1.25,4.9-.97,1.2-2.58,1.93-4.85,2.2l-2.3.2c-3.8.33-6.62,1.43-8.45,3.3-1.83,1.87-2.75,4.57-2.75,8.1v18.6c0,2.47-.65,4.37-1.95,5.7s-3.18,2-5.65,2Z"/>
        <path class="cls-1" d="M355.85,85.46c-5.33,0-9.98-1.05-13.95-3.15-3.97-2.1-7.02-5.08-9.15-8.95-2.13-3.87-3.2-8.43-3.2-13.7,0-3.93.6-7.47,1.8-10.6,1.2-3.13,2.95-5.8,5.25-8,2.3-2.2,5.08-3.88,8.35-5.05,3.27-1.17,6.9-1.75,10.9-1.75,2.07,0,4.27.25,6.6.75,2.33.5,4.63,1.35,6.9,2.55,1.33.6,2.25,1.45,2.75,2.55s.68,2.23.55,3.4c-.13,1.17-.55,2.2-1.25,3.1s-1.58,1.5-2.65,1.8c-1.07.3-2.27.12-3.6-.55-1.27-.73-2.58-1.27-3.95-1.6-1.37-.33-2.65-.5-3.85-.5-2,0-3.77.32-5.3.95-1.54.63-2.82,1.53-3.85,2.7-1.03,1.17-1.83,2.62-2.4,4.35-.57,1.73-.85,3.73-.85,6,0,4.4,1.08,7.85,3.25,10.35,2.17,2.5,5.22,3.75,9.15,3.75,1.2,0,2.47-.15,3.8-.45,1.33-.3,2.67-.82,4-1.55,1.33-.67,2.53-.83,3.6-.5,1.07.33,1.92.95,2.55,1.85.63.9,1,1.93,1.1,3.1.1,1.17-.1,2.3-.6,3.4-.5,1.1-1.38,1.95-2.65,2.55-2.27,1.13-4.53,1.95-6.8,2.45-2.27.5-4.43.75-6.5.75Z"/>
        <path class="cls-1" d="M221.15,27.48c-2.51,0-4.71,1.32-5.96,3.3h0s-19.46,30.89-19.46,30.89l-27.55-44.97h0c-1.24-2.02-3.46-3.37-6.01-3.37-3.89,0-7.05,3.16-7.05,7.05v58.95c0,3.89,3.16,7.05,7.05,7.05s7.05-3.16,7.05-7.05v-33.94l20.42,33.33h0c1.24,2.02,3.46,3.37,6.01,3.37s4.71-1.32,5.96-3.3h0s12.5-19.83,12.5-19.83v27.42c0,3.89,3.16,7.05,7.05,7.05s7.05-3.16,7.05-7.05v-51.84c0-3.89-3.16-7.05-7.05-7.05Z"/>
      </g>
      <g>
        <path class="cls-1" d="M121.91,81.46c0,.33,0,.66-.01.99-.19,6.67-2.25,12.87-5.69,18.08-.94,1.43-1.98,2.79-3.12,4.06-2.44,2.74-5.31,5.09-8.5,6.94-3.53,2.05-7.45,3.5-11.62,4.2-1.89.32-3.83.49-5.81.49h-52.41c-3.96,0-7.85-.67-11.51-1.96-4.26-1.49-8.21-3.81-11.62-6.85-.49-.44-.98-.89-1.45-1.36-.47-.47-.93-.95-1.36-1.45-5.66-6.35-8.81-14.58-8.81-23.13V5.81C0,2.6,2.6,0,5.81,0c1.61,0,3.06.66,4.11,1.71l.19.19,1.51,1.51,8.19,8.21,3.44,3.44,11.62,11.66,11.62,11.65.26.26,11.37-12.5,1.51-1.66c1.06-1.17,2.59-1.9,4.3-1.9,3.21,0,5.81,2.6,5.81,5.81v41.57c0,1.31-.43,2.51-1.16,3.48-.9,1.2-2.25,2.04-3.81,2.27-.27.04-.55.06-.83.06-3.2,0-5.82-2.69-5.82-5.89v-26.46s-3,3.3-3,3.3l-3.81,4.18h0s-.06.07-.06.07c-.07.08-.15.16-.23.24-1.25,1.23-2.91,1.78-4.52,1.65-1.34-.1-2.65-.66-3.66-1.69l-.03-.03-4.19-4.21-.21-.21-3.52-3.53-11.62-11.65-11.62-11.66v61.59c0,6.14,2.44,12.02,6.77,16.36,1.45,1.46,3.09,2.7,4.85,3.71,3.47,1.99,7.44,3.06,11.51,3.06h52.41c2.01,0,3.95-.26,5.81-.74,4.57-1.18,8.6-3.73,11.62-7.19,3.55-4.06,5.7-9.39,5.7-15.21s-2.15-11.14-5.7-15.21c-3.02-3.46-7.05-6.01-11.62-7.19-1.81-.47-3.69-.73-5.64-.74,0,0-.02,0-.03,0t0,0h0s0,0,0,0h-.11s-.09,0-.13,0h-.11c-.41-.02-.81-.08-1.21-.18-2-.52-3.66-2.08-4.19-4.23-.09-.34-.14-.68-.16-1.02v-.81c.17-2.45,1.89-4.61,4.39-5.24.11-.04.21-.08.32-.13.01,0,.03,0,.05-.02,2.71-1.12,5.04-2.84,6.87-4.97,2.81-3.27,4.43-7.49,4.43-11.93,0-.75-.05-1.52-.14-2.28-.46-3.68-2-7.01-4.29-9.67-2.89-3.36-6.98-5.65-11.62-6.23h-44.56c-1.23,0-2.42-.49-3.29-1.36L23.24,0h58.11c4.19.36,8.12,1.56,11.62,3.41,3.86,2.03,7.21,4.85,9.83,8.21.64.82,1.24,1.68,1.79,2.56,2.69,4.29,4.28,9.26,4.42,14.47,0,.24,0,.48,0,.73v.02c0,.41,0,.82-.03,1.23-.23,5.18-1.89,9.8-4.4,13.72-.52.81-1.08,1.6-1.66,2.36-.74.94-1.53,1.84-2.36,2.69,1.39.58,2.73,1.25,4.02,2,4.68,2.71,8.66,6.49,11.62,11,3.44,5.22,5.5,11.42,5.69,18.08,0,.33.01.66.01.99Z"/>
        <path class="cls-1" d="M87.16,81.97c0,1.65-.69,3.14-1.79,4.2-.13.12-.26.23-.39.34-1.17,1.03-2.38,1.97-3.63,2.84-3.62,2.52-7.54,4.38-11.62,5.58-.38.12-.76.22-1.14.32-.72.19-1.43.36-2.16.51h0c-2.65.55-5.34.84-8.03.85-.03,0-.06,0-.09,0-.07,0-.13,0-.2,0h-.12s-.07,0-.12,0c-.02,0-.04,0-.07,0-.65,0-1.3-.02-1.95-.06-1.1-.06-2.21-.17-3.31-.32-2.05-.28-4.07-.72-6.07-1.32-4.08-1.21-8.01-3.08-11.62-5.61-1.11-.77-2.18-1.6-3.23-2.5-.4-.34-.79-.69-1.18-1.05-1.03-1.2-1.59-2.82-1.36-4.57.34-2.58,2.42-4.65,5-4.98,1.87-.24,3.59.41,4.8,1.59,2.32,2.03,4.88,3.62,7.58,4.79,1.96.85,3.99,1.47,6.06,1.87,1.68.33,3.37.5,5.08.53,0,0,0,.02,0,.03.16-.01.33-.02.49-.02,2.05,0,4.1-.21,6.1-.64,1.79-.38,3.56-.93,5.27-1.66.08-.03.17-.07.25-.11,2.72-1.18,5.3-2.79,7.63-4.83.02-.02.04-.04.07-.06,1.03-.95,2.41-1.53,3.92-1.53,3.21,0,5.81,2.6,5.81,5.81Z"/>
      </g>
      <g>
        <path class="cls-1" d="M492.52,42.05v35.5c0,5.07-2.43,7.6-7.3,7.6-2.33,0-4.17-.65-5.5-1.95-1.29-1.26-1.96-3.06-1.99-5.42-1.27,2.01-2.84,3.64-4.71,4.87-2.74,1.8-5.97,2.7-9.7,2.7-4.13,0-7.57-.77-10.3-2.3-2.74-1.53-4.75-3.82-6.05-6.85-1.3-3.03-1.95-6.85-1.95-11.45v-32.6c0-3.7,3-6.7,6.7-6.7h1.7c3.7,0,6.7,3,6.7,6.7v32.9c0,2.87.6,5.03,1.8,6.5,1.2,1.47,3.07,2.2,5.6,2.2,2.93,0,5.32-1.02,7.15-3.05,1.83-2.03,2.75-4.72,2.75-8.05v-20.6c0-2.53.67-4.43,2-5.7,1.33-1.27,3.17-1.9,5.5-1.9,2.47,0,4.35.63,5.65,1.9,1.3,1.27,1.95,3.17,1.95,5.7Z"/>
        <path class="cls-1" d="M549.12,14.95c-1.34-1.27-3.2-1.9-5.6-1.9s-4.33.63-5.6,1.9c-1.27,1.27-1.9,3.17-1.9,5.7v21.28c-1.12-1.92-2.75-3.54-4.9-4.88-3-1.87-6.43-2.8-10.3-2.8-4.27,0-8.02,1.03-11.25,3.1s-5.75,5-7.55,8.8c-1.8,3.8-2.7,8.33-2.7,13.6s.9,9.83,2.7,13.7c1.8,3.87,4.32,6.82,7.55,8.85,3.23,2.03,6.98,3.05,11.25,3.05,3.93,0,7.42-.97,10.45-2.9,2.14-1.36,3.76-3.06,4.85-5.1v.2c0,2.47.65,4.35,1.95,5.65s3.18,1.95,5.65,1.95c2.33,0,4.15-.65,5.45-1.95,1.3-1.3,1.95-3.18,1.95-5.65V20.65c0-2.53-.67-4.43-2-5.7ZM534.82,67.85c-.93,2.13-2.2,3.72-3.8,4.75-1.6,1.03-3.5,1.55-5.7,1.55-3.2,0-5.8-1.17-7.8-3.5s-3-5.97-3-10.9c0-3.2.45-5.87,1.35-8,.9-2.13,2.16-3.7,3.8-4.7,1.63-1,3.52-1.5,5.65-1.5,3.27,0,5.9,1.15,7.9,3.45s3,5.88,3,10.75c0,3.27-.47,5.97-1.4,8.1Z"/>
        <path class="cls-1" d="M602.92,23.15h-1.7c-3.7,0-6.7,3-6.7,6.7v12.08c-1.12-1.92-2.75-3.54-4.9-4.88-3-1.87-6.44-2.8-10.3-2.8-4.27,0-8.02,1.03-11.25,3.1-3.24,2.07-5.75,5-7.55,8.8-1.8,3.8-2.7,8.33-2.7,13.6s.9,9.83,2.7,13.7c1.8,3.87,4.31,6.82,7.55,8.85,3.23,2.03,6.98,3.05,11.25,3.05,3.93,0,7.41-.97,10.45-2.9,2.14-1.36,3.76-3.06,4.85-5.1v.2c0,2.47.65,4.35,1.95,5.65s3.18,1.95,5.65,1.95c2.33,0,4.15-.65,5.45-1.95,1.3-1.3,1.95-3.18,1.95-5.65V29.85c0-3.7-3-6.7-6.7-6.7ZM593.32,67.85c-.94,2.13-2.2,3.72-3.8,4.75-1.6,1.03-3.5,1.55-5.7,1.55-3.2,0-5.8-1.17-7.8-3.5s-3-5.97-3-10.9c0-3.2.45-5.87,1.35-8,.9-2.13,2.16-3.7,3.8-4.7,1.63-1,3.51-1.5,5.65-1.5,3.26,0,5.9,1.15,7.9,3.45s3,5.88,3,10.75c0,3.27-.47,5.97-1.4,8.1Z"/>
        <path class="cls-1" d="M434.35,54.35c-.34-.51-.72-.99-1.13-1.45-2.12-2.4-4.9-4.09-8.35-5.05,2.81-1.11,5.13-2.78,6.95-5,.03-.03.05-.07.08-.1,2.35-2.91,3.52-6.45,3.52-10.6,0-3.73-.93-6.97-2.8-9.7s-4.53-4.85-8-6.35c-3.47-1.5-7.73-2.25-12.8-2.25h-24.2c-2.6,0-4.6.7-6,2.1-1.4,1.4-2.1,3.43-2.1,6.1v54.1c0,2.67.7,4.7,2.1,6.1s3.4,2.1,6,2.1h25.3c7.6,0,13.55-1.75,17.85-5.25,4.3-3.5,6.45-8.35,6.45-14.55,0-4.01-.95-7.41-2.87-10.2ZM419.62,70.5c-1.87,1.5-4.77,2.25-8.7,2.25h-16.5V25.45h14.7c3.87,0,6.73.72,8.6,2.15,1.87,1.43,2.8,3.62,2.8,6.55s-.93,5.02-2.8,6.45c-1.87,1.43-4.73,2.15-8.6,2.15h.9c-3.45,0-6.2,3.02-5.75,6.56.37,2.92,3,5.04,5.95,5.04h.7c3.93,0,6.83.75,8.7,2.25s2.8,3.85,2.8,7.05-.93,5.35-2.8,6.85Z"/>
        <path class="cls-1" d="M660.73,52.08l-13.37,31.03-7.46,17.31c-.3.69-.71,1.31-1.19,1.84-1.87,2.07-4.92,2.83-7.62,1.66l-1.56-.67c-3.4-1.46-4.97-5.4-3.5-8.79l4.98-11.57-15.03-37.81c-1.37-3.44.31-7.33,3.75-8.7l1.58-.63c3.43-1.37,7.33.31,8.7,3.75l9.45,23.77,7.4-17.16c1.46-3.4,5.41-4.97,8.8-3.5l1.57.67c3.39,1.46,4.96,5.41,3.5,8.8Z"/>
      </g>
    </g>
  </g>
</svg>

