<?xml version="1.0" encoding="UTF-8"?>
<svg id="Camada_2" data-name="Camada 2" xmlns="http://www.w3.org/2000/svg" viewBox="0 0 632.9 603.31">
  <defs>
    <style>
      .cls-1 {
        fill: #011526;
      }
    </style>
  </defs>
  <g id="Camada_1-2" data-name="Camada 1">
    <g>
      <path class="cls-1" d="M632.9,422.9c0,1.71-.02,3.43-.07,5.14-.97,34.61-11.68,66.8-29.51,93.88-4.87,7.43-10.3,14.48-16.19,21.07-12.67,14.21-27.56,26.4-44.14,36.01-18.32,10.67-38.66,18.17-60.33,21.79-9.82,1.66-19.89,2.53-30.17,2.53H180.41c-20.54,0-40.74-3.5-59.75-10.18-22.11-7.75-42.64-19.76-60.33-35.57-2.56-2.27-5.07-4.63-7.51-7.07-2.44-2.44-4.8-4.95-7.07-7.51C16.36,510.04,0,467.3,0,422.9V30.17C0,13.51,13.49,0,30.17,0c8.35,0,15.9,3.4,21.36,8.88l.97.99,7.84,7.84,42.5,42.62,17.83,17.88,60.33,60.52,60.33,60.5,1.33,1.33,59-64.92,7.84-8.62c5.5-6.06,13.47-9.87,22.32-9.87,16.65,0,30.17,13.49,30.17,30.17v215.82c0,6.78-2.24,13.03-6.01,18.08-4.68,6.23-11.7,10.59-19.79,11.78-1.41.21-2.84.31-4.31.31-16.62.03-30.22-13.96-30.22-30.58v-137.38s-15.57,17.13-15.57,17.13l-19.76,21.72v.02l-.31.34c-.39.43-.8.84-1.21,1.25-6.49,6.37-15.08,9.22-23.48,8.54-6.95-.53-13.73-3.45-19.02-8.76l-.17-.17-21.77-21.84-1.11-1.11-18.27-18.32-60.33-60.5-60.33-60.52v319.75c0,31.85,12.65,62.41,35.16,84.92,7.55,7.58,16.02,14.02,25.17,19.26,18.03,10.33,38.61,15.9,59.75,15.9h272.07c10.43,0,20.51-1.33,30.17-3.84,23.75-6.13,44.64-19.35,60.33-37.31,18.41-21.09,29.59-48.72,29.59-78.94s-11.17-57.85-29.59-78.94c-15.69-17.95-36.58-31.18-60.33-37.31-9.39-2.44-19.16-3.76-29.27-3.84-.05.02-.12.02-.17,0t-.05,0h-.05s-.02.02-.05,0h-.58c-.24,0-.48.02-.7,0h-.58c-2.12-.1-4.22-.41-6.27-.94-10.38-2.68-18.99-10.81-21.77-21.94-.46-1.79-.72-3.55-.84-5.29v-4.2c.89-12.69,9.8-23.94,22.81-27.2.55-.22,1.09-.43,1.64-.68.07-.02.17-.05.24-.1,14.07-5.84,26.16-14.77,35.64-25.8,14.58-16.99,23-38.88,23-61.95,0-3.91-.24-7.87-.75-11.85-2.39-19.09-10.38-36.37-22.25-50.2-15.01-17.42-36.25-29.35-60.33-32.36h-231.33c-6.4,0-12.54-2.54-17.06-7.07L120.66,0h301.66c21.77,1.86,42.14,8.08,60.33,17.69,20.03,10.55,37.41,25.19,51.02,42.64,3.33,4.27,6.44,8.71,9.32,13.3,13.95,22.27,22.2,48.05,22.95,75.12.02,1.25.05,2.51.05,3.76v.12c0,2.15-.05,4.27-.14,6.37-1.18,26.91-9.82,50.87-22.85,71.24-2.7,4.22-5.6,8.3-8.64,12.24-3.84,4.9-7.94,9.56-12.24,13.95,7.22,2.99,14.19,6.47,20.87,10.38,24.28,14.09,44.96,33.69,60.33,57.1,17.83,27.1,28.55,59.27,29.51,93.88.05,1.69.07,3.4.07,5.12Z"/>
      <path class="cls-1" d="M452.48,425.55c0,8.57-3.57,16.31-9.32,21.79-.68.6-1.35,1.21-2.03,1.79-6.06,5.33-12.33,10.23-18.82,14.72-18.78,13.08-39.17,22.73-60.33,28.98-1.95.6-3.93,1.16-5.91,1.67-3.72.99-7.43,1.88-11.2,2.63v.02c-13.73,2.85-27.7,4.32-41.68,4.39-.17.02-.31.02-.48.02-.36,0-.7.02-1.06,0h-.6c-.19,0-.39,0-.6-.02-.12.02-.22.02-.34,0-3.38,0-6.76-.12-10.14-.31-5.72-.31-11.46-.87-17.16-1.64-10.62-1.47-21.14-3.74-31.49-6.85-21.19-6.3-41.58-16-60.33-29.1-5.74-3.98-11.34-8.33-16.75-12.98-2.05-1.76-4.1-3.57-6.11-5.43-5.37-6.22-8.23-14.65-7.05-23.72,1.75-13.37,12.56-24.14,25.93-25.84,9.71-1.24,18.64,2.14,24.94,8.24,12.04,10.52,25.34,18.8,39.36,24.88,10.16,4.39,20.73,7.65,31.44,9.7,8.71,1.69,17.52,2.61,26.35,2.73-.02.05-.02.1-.02.17.84-.07,1.69-.12,2.56-.12,10.62,0,21.26-1.11,31.69-3.33,9.32-1.98,18.49-4.85,27.37-8.62.43-.17.87-.36,1.28-.55,14.12-6.11,27.51-14.48,39.63-25.1.12-.1.22-.19.34-.29,5.36-4.95,12.52-7.96,20.37-7.96,16.68,0,30.17,13.49,30.17,30.14Z"/>
    </g>
  </g>
</svg>