<?xml version="1.0" encoding="UTF-8"?>
<svg id="Camada_2" data-name="Camada 2" xmlns="http://www.w3.org/2000/svg" xmlns:xlink="http://www.w3.org/1999/xlink" viewBox="0 0 159.41 159.41">
  <defs>
    <style>
      .cls-1 {
        fill: none;
      }

      .cls-1, .cls-2, .cls-3, .cls-4 {
        stroke: #000;
        stroke-miterlimit: 10;
      }

      .cls-2, .cls-5 {
        fill: url(#Gradiente_sem_nome_32);
      }

      .cls-3 {
        fill: #95ba22;
      }

      .cls-6 {
        fill: #9bba17;
      }

      .cls-4 {
        fill: #fff;
        stroke-width: .5px;
      }

      .cls-7 {
        clip-path: url(#clippath);
      }
    </style>
    <linearGradient id="Gradiente_sem_nome_32" data-name="Gradiente sem nome 32" x1="377.58" y1="7.82" x2="512.94" y2="143.18" gradientTransform="translate(-361.35 151) scale(1 -1)" gradientUnits="userSpaceOnUse">
      <stop offset="0" stop-color="#a8db2c"/>
      <stop offset="1" stop-color="#a3bf00"/>
    </linearGradient>
    <clipPath id="clippath">
      <rect class="cls-2" x="8.91" y=".5" width="150" height="150" rx="25" ry="25" transform="translate(167.83 151) rotate(-180)"/>
    </clipPath>
  </defs>
  <g id="Camada_1-2" data-name="Camada 1">
    <g id="Figma-Floating-Icon">
      <rect class="cls-3" x=".5" y="8.91" width="150" height="150" rx="25" ry="25" transform="translate(151 167.83) rotate(-180)"/>
      <g>
        <rect class="cls-5" x="8.91" y=".5" width="150" height="150" rx="25" ry="25" transform="translate(167.83 151) rotate(-180)"/>
        <g class="cls-7">
          <path class="cls-6" d="M8.91,49.06c.92,8.23,6.02,45.94,39.43,74.34,31.73,26.98,67.47,27.27,76.24,27.09,1.88.63,7.56,2.8,11.3,8.71,5.66,8.95,1.91,18.62,1.46,19.54-3.04,6.19-8.84,10.7-15.19,13.39-6.35,2.68-13.27,3.71-20.13,4.41-24.05,2.44-48.48,1.04-72.09-4.13-16.12-3.53-32.84-9.48-42.95-22.53-10.73-13.86-11.78-32.66-12.38-50.18-.55-15.93-2.09-23.82.69-33.05C-18.2,65.04.74,53.42,8.91,49.06Z"/>
        </g>
        <rect class="cls-1" x="8.91" y=".5" width="150" height="150" rx="25" ry="25" transform="translate(167.83 151) rotate(-180)"/>
      </g>
      <path class="cls-4" d="M110.65,63.23c4.95-3.48,8.19-9.22,8.19-15.71,0-10.59-8.62-19.21-19.21-19.21h-31.43c-10.59,0-19.21,8.62-19.21,19.21,0,6.49,3.25,12.23,8.19,15.71-4.95,3.48-8.19,9.22-8.19,15.71s3.25,12.23,8.19,15.71c-4.95,3.48-8.19,9.22-8.19,15.71,0,10.59,8.62,19.21,19.21,19.21s19.21-8.62,19.21-19.21v-16.6c3.32,2.74,7.58,4.39,12.21,4.39,10.59,0,19.21-8.62,19.21-19.21,0-6.49-3.25-12.23-8.19-15.71ZM87.41,35.3h12.21c6.73,0,12.21,5.48,12.21,12.21s-5.48,12.21-12.21,12.21h-12.21v-24.43ZM55.99,47.52c0-6.73,5.48-12.21,12.21-12.21h12.21v24.43h-12.21c-6.73,0-12.21-5.48-12.21-12.21ZM55.99,78.94c0-6.73,5.48-12.21,12.21-12.21h12.21v24.43h-12.21c-6.73,0-12.21-5.48-12.21-12.21ZM80.41,110.37c0,6.73-5.48,12.21-12.21,12.21s-12.21-5.48-12.21-12.21,5.48-12.21,12.21-12.21h12.21v12.21ZM99.63,91.15c-6.73,0-12.21-5.48-12.21-12.21s5.48-12.21,12.21-12.21,12.21,5.48,12.21,12.21-5.48,12.21-12.21,12.21Z"/>
    </g>
  </g>
</svg>