<?xml version="1.0" encoding="UTF-8"?>
<svg id="Camada_2" data-name="Camada 2" xmlns="http://www.w3.org/2000/svg" xmlns:xlink="http://www.w3.org/1999/xlink" viewBox="0 0 159.41 159.41">
  <defs>
    <style>
      .cls-1 {
        fill: #fff;
        fill-rule: evenodd;
        stroke-width: .5px;
      }

      .cls-1, .cls-2, .cls-3, .cls-4 {
        stroke: #000;
        stroke-miterlimit: 10;
      }

      .cls-2 {
        fill: none;
      }

      .cls-3, .cls-5 {
        fill: url(#Gradiente_sem_nome_32);
      }

      .cls-4 {
        fill: #95ba22;
      }

      .cls-6 {
        fill: #9bba17;
      }

      .cls-7 {
        clip-path: url(#clippath);
      }
    </style>
    <linearGradient id="Gradiente_sem_nome_32" data-name="Gradiente sem nome 32" x1="7.82" y1="7.82" x2="143.18" y2="143.18" gradientUnits="userSpaceOnUse">
      <stop offset="0" stop-color="#a8db2c"/>
      <stop offset="1" stop-color="#a3bf00"/>
    </linearGradient>
    <clipPath id="clippath">
      <rect class="cls-3" x=".5" y=".5" width="150" height="150" rx="25" ry="25"/>
    </clipPath>
  </defs>
  <g id="Camada_1-2" data-name="Camada 1">
    <g id="Notion-Floating-Icon">
      <rect class="cls-4" x="8.91" y="8.91" width="150" height="150" rx="25" ry="25"/>
      <g>
        <rect class="cls-5" x=".5" y=".5" width="150" height="150" rx="25" ry="25"/>
        <g class="cls-7">
          <path class="cls-6" d="M150.5,49.06c-.92,8.23-6.02,45.94-39.43,74.34-31.73,26.98-67.47,27.27-76.24,27.09-1.88.63-7.56,2.8-11.3,8.71-5.66,8.95-1.91,18.62-1.46,19.54,3.04,6.19,8.84,10.7,15.19,13.39,6.35,2.68,13.27,3.71,20.13,4.41,24.05,2.44,48.48,1.04,72.09-4.13,16.12-3.53,32.84-9.48,42.95-22.53,10.73-13.86,11.78-32.66,12.38-50.18.55-15.93,2.09-23.82-.69-33.05-6.5-21.62-25.44-33.24-33.61-37.59Z"/>
        </g>
        <rect class="cls-2" x=".5" y=".5" width="150" height="150" rx="25" ry="25"/>
      </g>
      <path class="cls-1" d="M88.6,30.87l-49.61,3.66c-4,.35-5.4,2.96-5.4,6.1v54.39c0,2.44.87,4.53,2.96,7.32l11.66,15.17c1.92,2.44,3.66,2.97,7.32,2.79l57.62-3.49c4.87-.35,6.27-2.62,6.27-6.45v-61.19c0-1.98-.78-2.55-3.09-4.24l-16.23-11.44c-3.83-2.79-5.4-3.14-11.49-2.62h0ZM56.83,48.17c-4.7.32-5.77.39-8.44-1.78l-6.79-5.4c-.69-.7-.34-1.57,1.4-1.75l47.7-3.49c4.01-.35,6.09,1.05,7.66,2.27l8.18,5.93c.35.18,1.22,1.22.17,1.22l-49.26,2.97-.61.04h0ZM51.35,109.84v-51.95c0-2.27.7-3.31,2.78-3.49l56.57-3.31c1.92-.17,2.79,1.05,2.79,3.31v51.6c0,2.27-.35,4.19-3.48,4.36l-54.14,3.14c-3.13.17-4.52-.87-4.52-3.66h0ZM104.79,60.68c.35,1.57,0,3.14-1.57,3.32l-2.61.52v38.35c-2.27,1.22-4.35,1.92-6.09,1.92-2.79,0-3.48-.87-5.57-3.49l-17.06-26.85v25.97l5.4,1.22s0,3.14-4.36,3.14l-12.01.7c-.35-.7,0-2.44,1.22-2.79l3.14-.87v-34.34l-4.35-.35c-.35-1.57.52-3.83,2.96-4.01l12.88-.87,17.75,27.19v-24.06l-4.53-.52c-.35-1.92,1.04-3.32,2.78-3.49l12.02-.7h0Z"/>
    </g>
  </g>
</svg>