<?xml version="1.0" encoding="UTF-8"?>
<svg id="Camada_2" data-name="Camada 2" xmlns="http://www.w3.org/2000/svg" xmlns:xlink="http://www.w3.org/1999/xlink" viewBox="0 0 159.41 159.41">
  <defs>
    <style>
      .cls-1 {
        fill: none;
      }

      .cls-1, .cls-2, .cls-3, .cls-4 {
        stroke: #000;
        stroke-miterlimit: 10;
      }

      .cls-2, .cls-5 {
        fill: url(#Gradiente_sem_nome_32);
      }

      .cls-3 {
        fill: #95ba22;
      }

      .cls-6 {
        fill: #9bba17;
      }

      .cls-4 {
        fill: #fff;
        stroke-width: .5px;
      }

      .cls-7 {
        clip-path: url(#clippath);
      }
    </style>
    <linearGradient id="Gradiente_sem_nome_32" data-name="Gradiente sem nome 32" x1="7.82" y1="7.82" x2="143.18" y2="143.18" gradientTransform="translate(8.41 151) scale(1 -1)" gradientUnits="userSpaceOnUse">
      <stop offset="0" stop-color="#a8db2c"/>
      <stop offset="1" stop-color="#a3bf00"/>
    </linearGradient>
    <clipPath id="clippath">
      <rect class="cls-2" x="8.91" y=".5" width="150" height="150" rx="25" ry="25" transform="translate(167.83 151) rotate(-180)"/>
    </clipPath>
  </defs>
  <g id="Camada_1-2" data-name="Camada 1">
    <g id="Photoshop-Floating-Icon">
      <rect class="cls-3" x=".5" y="8.91" width="150" height="150" rx="25" ry="25" transform="translate(151 167.83) rotate(-180)"/>
      <g>
        <rect class="cls-5" x="8.91" y=".5" width="150" height="150" rx="25" ry="25" transform="translate(167.83 151) rotate(-180)"/>
        <g class="cls-7">
          <path class="cls-6" d="M8.91,49.06c.92,8.23,6.02,45.94,39.43,74.34,31.73,26.98,67.47,27.27,76.24,27.09,1.88.63,7.56,2.8,11.3,8.71,5.66,8.95,1.91,18.62,1.46,19.54-3.04,6.19-8.84,10.7-15.19,13.39-6.35,2.68-13.27,3.71-20.13,4.41-24.05,2.44-48.48,1.04-72.09-4.13-16.12-3.53-32.84-9.48-42.95-22.53-10.73-13.86-11.78-32.66-12.38-50.18-.55-15.93-2.09-23.82.69-33.05C-18.2,65.04.74,53.42,8.91,49.06Z"/>
        </g>
        <rect class="cls-1" x="8.91" y=".5" width="150" height="150" rx="25" ry="25" transform="translate(167.83 151) rotate(-180)"/>
      </g>
      <g>
        <path class="cls-4" d="M56.22,107.66v-22.16c1.18.12,2.58.18,4.1.18,9.27,0,16.77-2.45,21.68-7.07,4.02-3.82,6.24-9.52,6.24-16.04s-2.65-12.06-7.26-15.7c-4.53-3.63-11.2-5.39-20.37-5.39-7.95,0-14.66.46-19.96,1.36-.43.07-.75.45-.75.89v63.94c0,.5.4.9.9.9h14.52c.5,0,.9-.4.9-.9ZM56.22,72.4v-17.67c.89-.17,2.55-.39,5.15-.39,6.7,0,10.54,3.14,10.54,8.62,0,6.06-4.37,9.67-11.69,9.67-1.76,0-3.01-.07-4-.23Z"/>
        <path class="cls-4" d="M114.54,78.06c-5.98-2.09-6.99-3.09-6.99-4.53,0-2.56,2.93-2.94,4.67-2.94,3.71,0,7.57,1.39,9.76,2.58.24.13.54.15.79.04.25-.11.44-.33.51-.6l2.6-10.09c.11-.41-.09-.84-.47-1.03-2.7-1.35-7.7-2.79-13.67-2.79-11.8,0-20.04,6.7-20.04,16.27-.08,4.67,2.28,11.07,13.98,15,5.68,1.89,6.31,2.88,6.31,4.53,0,.75,0,3.04-5.35,3.04-4.01,0-9.41-1.78-12.13-3.43-.25-.15-.55-.17-.81-.06-.27.11-.46.34-.53.62l-2.6,10.48c-.1.4.09.82.45,1.01,3.97,2.15,9.66,3.38,15.62,3.38,13.13,0,21.29-6.17,21.29-16.11-.1-7.47-4.24-12.21-13.39-15.36Z"/>
      </g>
    </g>
  </g>
</svg>