<?xml version="1.0" encoding="UTF-8"?>
<svg id="Camada_2" data-name="Camada 2" xmlns="http://www.w3.org/2000/svg" xmlns:xlink="http://www.w3.org/1999/xlink" viewBox="0 0 159.41 159.41">
  <defs>
    <style>
      .cls-1 {
        fill: none;
      }

      .cls-1, .cls-2, .cls-3, .cls-4 {
        stroke: #000;
        stroke-miterlimit: 10;
      }

      .cls-2, .cls-5 {
        fill: url(#Gradiente_sem_nome_32);
      }

      .cls-3 {
        fill: #95ba22;
      }

      .cls-6 {
        fill: #9bba17;
      }

      .cls-4 {
        fill: #fff;
        stroke-width: .5px;
      }

      .cls-7 {
        clip-path: url(#clippath);
      }
    </style>
    <linearGradient id="Gradiente_sem_nome_32" data-name="Gradiente sem nome 32" x1="7.82" y1="7.82" x2="143.18" y2="143.18" gradientUnits="userSpaceOnUse">
      <stop offset="0" stop-color="#a8db2c"/>
      <stop offset="1" stop-color="#a3bf00"/>
    </linearGradient>
    <clipPath id="clippath">
      <rect class="cls-2" x=".5" y=".5" width="150" height="150" rx="25" ry="25"/>
    </clipPath>
  </defs>
  <g id="Camada_1-2" data-name="Camada 1">
    <g id="Robot-Floating-Icon">
      <rect class="cls-3" x="8.91" y="8.91" width="150" height="150" rx="25" ry="25"/>
      <g>
        <rect class="cls-5" x=".5" y=".5" width="150" height="150" rx="25" ry="25"/>
        <g class="cls-7">
          <path class="cls-6" d="M150.5,49.06c-.92,8.23-6.02,45.94-39.43,74.34-31.73,26.98-67.47,27.27-76.24,27.09-1.88.63-7.56,2.8-11.3,8.71-5.66,8.95-1.91,18.62-1.46,19.54,3.04,6.19,8.84,10.7,15.19,13.39,6.35,2.68,13.27,3.71,20.13,4.41,24.05,2.44,48.48,1.04,72.09-4.13,16.12-3.53,32.84-9.48,42.95-22.53,10.73-13.86,11.78-32.66,12.38-50.18.55-15.93,2.09-23.82-.69-33.05-6.5-21.62-25.44-33.24-33.61-37.59Z"/>
        </g>
        <rect class="cls-1" x=".5" y=".5" width="150" height="150" rx="25" ry="25"/>
      </g>
      <g>
        <path class="cls-4" d="M69.98,81.9v-8.76c0-1.22-.99-2.21-2.21-2.21h-13.43c-1.22,0-2.21.99-2.21,2.21v8.76c0,1.22.99,2.21,2.21,2.21h13.43c1.22,0,2.21-.99,2.21-2.21ZM65.56,79.69h-9.01v-4.34h9.01v4.34Z"/>
        <path class="cls-4" d="M98.66,70.93h-13.43c-1.22,0-2.21.99-2.21,2.21v8.76c0,1.22.99,2.21,2.21,2.21h13.43c1.22,0,2.21-.99,2.21-2.21v-8.76c0-1.22-.99-2.21-2.21-2.21ZM96.45,79.69h-9.01v-4.34h9.01v4.34Z"/>
        <path class="cls-4" d="M86.4,93.09h-19.81c-1.22,0-2.21.99-2.21,2.21s.99,2.21,2.21,2.21h19.81c1.22,0,2.21-.99,2.21-2.21s-.99-2.21-2.21-2.21Z"/>
        <path class="cls-4" d="M119.53,69.12h-7.97v-4.23c0-2.92-2.38-5.3-5.3-5.3h-27.55v-13.63c4.2-1,7.34-4.78,7.34-9.29,0-5.27-4.29-9.55-9.55-9.55s-9.55,4.29-9.55,9.55c0,4.51,3.14,8.28,7.34,9.29v13.63h-27.55c-2.92,0-5.3,2.38-5.3,5.3v4.23h-7.97c-1.22,0-2.21.99-2.21,2.21v18.55c0,1.22.99,2.21,2.21,2.21h7.97v12.48c0,2.92,2.38,5.3,5.3,5.3h59.52c2.92,0,5.3-2.38,5.3-5.3v-12.48h7.97c1.22,0,2.21-.99,2.21-2.21v-18.55c0-1.22-.99-2.21-2.21-2.21h0ZM71.37,36.68c0-2.83,2.3-5.13,5.13-5.13s5.13,2.3,5.13,5.13-2.3,5.13-5.13,5.13-5.13-2.3-5.13-5.13ZM35.68,87.68v-14.13h5.76v14.13h-5.76ZM107.14,104.57c0,.49-.4.88-.88.88h-59.52c-.49,0-.88-.4-.88-.88v-39.68c0-.49.4-.88.88-.88h59.52c.49,0,.88.4.88.88v39.68ZM117.32,87.68h-5.76v-14.13h5.76v14.13Z"/>
      </g>
    </g>
  </g>
</svg>