<?xml version="1.0" encoding="UTF-8"?>
<svg id="Camada_2" data-name="Camada 2" xmlns="http://www.w3.org/2000/svg" viewBox="0 0 764.64 774.05">
  <defs>
    <style>
      .cls-1, .cls-2, .cls-3, .cls-4, .cls-5, .cls-6, .cls-7 {
        stroke: #000;
        stroke-miterlimit: 10;
      }

      .cls-1, .cls-3, .cls-4, .cls-6 {
        fill: none;
      }

      .cls-1, .cls-6 {
        stroke-width: 1.67px;
      }

      .cls-2 {
        fill: #011526;
      }

      .cls-2, .cls-3, .cls-5, .cls-7 {
        stroke-width: 6.69px;
      }

      .cls-3, .cls-4, .cls-6 {
        stroke-linecap: round;
      }

      .cls-4 {
        stroke-width: 10.04px;
      }

      .cls-5 {
        fill: #f5f5f5;
      }

      .cls-7 {
        fill: #fff;
      }
    </style>
  </defs>
  <g id="_1" data-name="1">
    <g>
      <path class="cls-1" d="M564.53,633.95c-7.56-3.21-15.29-1.07-16.39-4.42-1.57-4.68,11.51-15.15,25.96-19.04,4.22-1.1,11.84-3.18,19.64-1.94"/>
      <path class="cls-5" d="M644.59,563.1c-.44-.3-.87-.57-1.3-.87-.94-.64-1.91-1.27-2.91-1.81-.57-.33-1.14-.67-1.74-1-.33-.2-.67-.4-1.04-.6-.37-.2-.7-.4-1.07-.57-.84-.47-1.64-.9-2.48-1.34-1.57-.8-3.18-1.57-4.78-2.31-1.84-.84-3.68-1.67-5.59-2.38-.7-.27-1.41-.5-2.11-.77-.8-.3-1.64-.6-2.51-.87-.74-.27-1.51-.5-2.31-.74-.8-.27-1.61-.5-2.44-.74-.43-.13-.87-.23-1.3-.33-1.17-.33-2.31-.6-3.45-.87-1-.23-2.01-.47-2.98-.64-1.81-.37-3.58-.7-5.29-.94-1.34-.2-2.68-.37-4.05-.53-1.07-.13-2.07-.23-3.08-.3-3.08-.23-6.22-.37-9.4-.37-12.85,0-25.09,2.17-36.33,6.12-.54.2-1.1.4-1.67.6-1.34.5-2.74,1.04-4.22,1.67-.37.17-.77.33-1.17.5-.87.37-1.77.77-2.68,1.2-1.67.77-3.41,1.64-5.18,2.61-1.1.6-2.18,1.2-3.21,1.84-1.07.64-2.14,1.27-3.18,1.94-.33.23-.64.44-.94.64-1.31.87-2.54,1.71-3.71,2.58-1.07.77-2.14,1.57-3.18,2.41-.94.74-1.87,1.51-2.84,2.38-1.24,1.04-2.48,2.14-3.75,3.38-.17.13-.3.27-.47.43-.94.9-1.81,1.81-2.61,2.68-1.04,1.07-1.97,2.14-2.81,3.14-.23.27-.44.5-.64.74-.03.03-.03.07-.07.1-1.61,2.44-3.28,4.65-4.99,6.59-.03.03-.07.07-.1.1-6.09,6.96-12.45,10.57-16.89,9-7.66-2.68-7.36-20.07-7.26-26.29.23-12.51,3.98-42.15,41.52-77.18-7.03-15.46-20.64-50.98-15.66-96.88,4.38-40.35,20.98-69.22,30.34-83.2-3.45,2.07-51.35,29.74-103.01,4.75-52.36-25.36-59.92-81.19-60.35-84.91-10.64,6.29-45.16,24.96-91.23,19.14-39.71-5.02-65.94-25.39-75.81-33.92-10,6.22-31.68,17.73-61.15,18.4-19.14.47-34.59-3.85-44.39-7.46l-.7,1.2c-27.73,47.71-39.68,93.61-41.68,101.63-4.72,18.77-10.57,42.15-11.74,74.07-1.81,48.84,3.58,59.01,1.37,100.56-.4,7.69-2.68,16.93-2.68,16.93-2.44,8.33-5.29,20.04-6.89,34.26-1.17,10.5-4.65,43.69,5.99,77.15,15.96,50.12,56.07,77.41,76.51,91.3,37.97,25.86,74.03,33.39,98.49,38.47,6.46,1.34,17.63,3.48,31.65,5.02,13.95,1.51,30.71,2.48,48.34,1.51,34.06-1.87,63.13-10.4,92.43-24.15,28.7-13.45,57.68-31.85,91.77-53.76,8.03-5.15,15.86-10.2,23.52-15.22,17.43,23.02,47.3,38.2,81.26,38.2,53.76,0,97.35-38.1,97.35-85.14,0-27.3-14.69-51.59-37.54-67.14Z"/>
      <path id="eye-frame-left" class="cls-7" d="M201.18,451.86c-2.88,55.74-38.61,99.19-79.86,97.08-40.15-2.04-70.72-46.64-69.62-100.46-.07-1.74-.03-3.48.07-5.22.13-2.84.43-5.65.9-8.4,0-.1,0-.17.03-.27,6.19-51.05,40.18-89.49,78.99-87.48,41.25,2.11,72.33,49.01,69.48,104.74Z"/>
      <path id="eye-frame-right" class="cls-7" d="M418.5,475.45c-2.84,55.74-38.61,99.19-79.82,97.08-41.25-2.11-72.36-49.01-69.48-104.75.07-1.14.13-2.24.23-3.38,4.08-54.1,39.21-95.81,79.62-93.71,41.22,2.11,72.33,49.01,69.45,104.75Z"/>
      <path class="cls-1" d="M52.68,434.87c-.37,3.08-.64,6.19-.8,9.33-.07,1.44-.13,2.88-.17,4.28-.07-1.74-.03-3.48.07-5.22.13-2.84.43-5.65.9-8.4Z"/>
      <path class="cls-1" d="M506.12,580.09c-1.61,2.44-3.28,4.65-4.99,6.59,1.51-2.27,3.18-4.45,4.99-6.59Z"/>
      <path class="cls-1" d="M522.48,564.84c-1.07.77-2.14,1.57-3.18,2.41.3-.23.57-.47.84-.67.74-.57,1.54-1.17,2.34-1.74Z"/>
      <path class="cls-1" d="M564.53,633.95c-7.56-3.21-15.29-1.07-16.39-4.42-1.57-4.68,11.51-15.15,25.96-19.04,4.22-1.1,11.84-3.18,19.64-1.94"/>
      <path class="cls-1" d="M594.17,545.5c-3.08-.23-6.22-.37-9.4-.37-12.85,0-25.09,2.17-36.33,6.12,4.98-1.91,11.27-3.81,18.7-5.05,8.43-1.37,15.86-1.44,21.68-1.07,1.67.07,3.45.17,5.35.37Z"/>
      <path class="cls-1" d="M638.67,559.38l-.03.03c-.33-.2-.67-.4-1.04-.6.37.17.7.37,1.07.57Z"/>
      <path class="cls-1" d="M506.12,580.09c-1.61,2.44-3.28,4.65-4.99,6.59,1.51-2.27,3.18-4.45,4.99-6.59Z"/>
      <path class="cls-1" d="M640.37,560.42c-.57-.33-1.14-.67-1.74-1-.33-.2-.67-.4-1.04-.6.37.17.7.37,1.07.57.57.3,1.14.64,1.71,1.04Z"/>
      <path class="cls-3" d="M613.88,657.57c6.29-19.17,1.3-37.9-10.71-45.53-3.01-1.91-6.26-2.98-9.43-3.48-7.79-1.24-15.42.84-19.64,1.94-14.45,3.88-27.53,14.35-25.96,19.04,1.1,3.35,8.83,1.2,16.39,4.42,1.37.54,2.71,1.27,4.01,2.24,7.73,5.72,9.6,16.26,10.04,23.82"/>
      <path class="cls-6" d="M52.68,434.87c-.37,3.08-.64,6.19-.8,9.33-.07,1.44-.13,2.88-.17,4.28-.07-1.74-.03-3.48.07-5.22.13-2.84.43-5.65.9-8.4Z"/>
      <path id="eye-left" d="M138.02,447.68c-1.64,32.18-22.31,57.31-46.1,56.07-22.51-1.14-39.81-25.42-40.21-55.27.03-1.4.1-2.84.17-4.28.17-3.15.44-6.26.8-9.33,0-.1,0-.17.03-.27,4.55-27.93,23.55-48.54,45.2-47.44,23.79,1.24,41.75,28.34,40.11,60.52Z"/>
      <path id="eye-right" d="M355.44,472.2c-1.67,32.18-22.31,57.31-46.13,56.07-23.79-1.2-41.75-28.3-40.11-60.49.07-1.14.13-2.24.23-3.38,2.88-30.58,22.92-53.89,45.87-52.69,23.82,1.2,41.78,28.3,40.15,60.49Z"/>
      <path d="M96.85,309.62c12.77-14.19,34.44-19.83,52.86-15.74,6.28,1.52,12.34,4.04,17.28,8.36,3.74,3.35,4.06,9.1.71,12.84-1.62,1.82-3.74,2.75-6,3.03-2.78.47-5.32.62-7.81.79-7.14.42-14.12.41-21.18.55-6.73.15-14.73.78-21.63,1.4-2.69.23-5.51.52-8.44.62-6.22.31-9.83-7.19-5.79-11.85h0Z"/>
      <path d="M384.04,348.43c-9.73-1.11-19.87-2.86-29.47-3.52-7.04-.5-14.01-.85-21.12-1.63-2.68-.31-5.6-.66-8.51-1.36-4.9-1.1-7.98-5.96-6.88-10.86,1.49-7.32,14.39-11.35,20.85-12.55,12.64-2.23,26.09.39,37.32,6.42,5.6,3.05,10.73,6.95,14.67,12.01,3.95,5.13-.54,12.5-6.86,11.49h0Z"/>
      <path class="cls-4" d="M213.69,642.82c9.74,2.97,31.38,8.12,57.8,2.08,24.41-5.58,40.79-17.95,48.45-24.57"/>
      <path class="cls-3" d="M247.46,533.28c-14.38-4.58-29.73-.52-38.75,10.13-10.02,11.83-7.74,26.51-7.36,28.73"/>
      <path class="cls-2" d="M644.59,563.1c-.44-.3-.87-.57-1.3-.87-.94-.64-1.91-1.27-2.91-1.81-.57-.4-1.14-.74-1.71-1.04-.37-.2-.7-.4-1.07-.57-.37-.2-.7-.4-1.07-.57-.84-.47-1.64-.9-2.48-1.34-1.51-.77-3.11-1.54-4.78-2.31-1.84-.84-3.68-1.67-5.59-2.38-.7-.27-1.41-.5-2.11-.77-.8-.3-1.64-.6-2.51-.87-.74-.27-1.51-.5-2.31-.74-.8-.27-1.61-.5-2.44-.74-.43-.13-.87-.23-1.3-.33-1.17-.33-2.31-.6-3.45-.87-1-.23-2.01-.47-2.98-.64-1.81-.37-3.58-.7-5.29-.94-1.41-.23-2.74-.4-4.05-.53-1.07-.13-2.07-.23-3.08-.3-1.91-.2-3.68-.3-5.35-.37-5.82-.37-13.25-.3-21.68,1.07-7.43,1.24-13.72,3.15-18.7,5.05-.54.2-1.1.4-1.67.6-1.34.5-2.74,1.04-4.22,1.67-.37.17-.77.33-1.17.5-.87.37-1.77.77-2.68,1.2-1.67.77-3.41,1.64-5.18,2.61-1.1.6-2.18,1.2-3.21,1.84-1.1.64-2.18,1.3-3.18,1.94-.33.23-.64.44-.94.64-1.31.87-2.54,1.71-3.71,2.58-.8.57-1.61,1.17-2.34,1.74-.27.2-.54.44-.84.67-.94.74-1.87,1.51-2.84,2.38-1.24,1.04-2.48,2.14-3.75,3.38-.17.13-.3.27-.47.43-.94.9-1.81,1.81-2.61,2.68-1.04,1.07-1.97,2.14-2.81,3.14-.23.27-.44.5-.64.74-.03.03-.03.07-.07.1-1.81,2.14-3.48,4.32-4.99,6.59-.03.03-.07.07-.1.1-6.09,6.96-12.45,10.57-16.89,9-7.66-2.68-7.36-20.07-7.26-26.29.23-12.51,3.98-42.15,41.52-77.18-7.03-15.46-20.64-50.98-15.66-96.88,4.38-40.35,20.98-69.22,30.34-83.2-3.45,2.07-51.35,29.74-103.01,4.75-52.36-25.36-59.92-81.19-60.35-84.91-10.64,6.29-45.16,24.96-91.23,19.14-39.71-5.02-65.94-25.39-75.81-33.92-10,6.22-31.68,17.73-61.15,18.4-19.14.47-34.59-3.85-44.39-7.46l-.7,1.2c-11.17,18.6-23.38,42.62-33.45,71.86-11.11,32.32-16.26,61.42-18.63,84.41-5.75-5.29-30.11-28.77-33.15-67.34-2.51-31.65,10.84-54.86,15.69-62.53-30.38-42.52-31.41-99.43-2.78-142.35,27.43-41.12,77.25-62.12,126.42-53.29,9.67-12.08,35.03-40.31,77.55-51.92,74.97-20.44,135.99,29.21,142.11,34.39,14.82-5.22,107.22-36,194.74,15.46,45.1,26.5,69.45,63.43,80.76,83.8,10.54,6.86,107.92,72.5,115.18,195.37,5.29,89.66-39.41,176-116.29,225.82Z"/>
      <path class="cls-1" d="M506.12,580.09c-1.61,2.44-3.28,4.65-4.99,6.59,1.51-2.27,3.18-4.45,4.99-6.59Z"/>
      <path class="cls-1" d="M640.37,560.42c-.57-.33-1.14-.67-1.74-1-.33-.2-.67-.4-1.04-.6.37.17.7.37,1.07.57.57.3,1.14.64,1.71,1.04Z"/>
    </g>
  </g>
</svg>