<?xml version="1.0" encoding="UTF-8"?>
<svg id="Camada_17" data-name="Camada 17" xmlns="http://www.w3.org/2000/svg" viewBox="0 0 1080 1080">
  <defs>
    <style>
      .cls-1 {
        fill: #333a4a;
      }

      .cls-2 {
        fill: #bcc1ce;
      }

      .cls-3 {
        fill: #515867;
      }

      .cls-4 {
        fill: #fff;
      }

      .cls-5 {
        fill: #011526;
      }

      .cls-6 {
        fill: #313642;
      }

      .cls-7 {
        fill: #e5e5e5;
      }

      .cls-8 {
        fill: #fbfbfb;
      }

      .cls-9 {
        fill: #f2f2f2;
      }

      .cls-10, .cls-11, .cls-12, .cls-13, .cls-14, .cls-15 {
        stroke: #000;
      }

      .cls-10, .cls-11, .cls-12, .cls-14, .cls-15 {
        stroke-linecap: round;
        stroke-linejoin: round;
      }

      .cls-10, .cls-12, .cls-13, .cls-15 {
        stroke-width: 1.5px;
      }

      .cls-10, .cls-16 {
        fill: #8ac60c;
      }

      .cls-11 {
        stroke-width: .25px;
      }

      .cls-11, .cls-13, .cls-14, .cls-15 {
        fill: none;
      }

      .cls-17 {
        fill: #2e3542;
      }

      .cls-18, .cls-12 {
        fill: #c8c8c9;
      }

      .cls-13 {
        stroke-miterlimit: 10;
      }

      .cls-14 {
        stroke-width: .5px;
      }

      .cls-19 {
        fill: #082b43;
      }

      .cls-20 {
        fill: #b9bec6;
      }

      .cls-21 {
        fill: #f4f4f4;
      }

      .cls-22 {
        fill: #8ac306;
      }

      .cls-23 {
        fill: #f2f4f3;
      }
    </style>
  </defs>
  <g>
    <polygon class="cls-7" points="925.12 902.5 908.27 911.57 735.42 1004.73 735.42 786.91 908.27 876.05 908.27 893.8 925.12 902.5"/>
    <polygon class="cls-7" points="701.74 769.53 701.74 1005.11 691.08 999.62 259.01 776.77 242.18 768.09 259 759.02 259.01 759.02 259.01 741.26 431.87 648.1 431.88 648.1 448.71 656.78 465.55 647.71 465.56 647.71 691.08 764.04 701.74 769.53"/>
  </g>
  <g>
    <g>
      <polygon class="cls-21" points="925.12 902.49 925.12 902.5 908.27 893.8 908.27 570.38 925.12 561.3 925.12 902.49"/>
      <polygon class="cls-21" points="735.42 1004.73 718.57 1013.8 718.57 672.62 735.42 663.54 735.42 1004.73"/>
      <polygon class="cls-21" points="718.57 672.62 718.57 1013.8 701.74 1005.11 701.74 681.69 718.57 672.62"/>
      <polygon class="cls-21" points="259.01 464.59 259.01 759.02 259 759.02 242.18 768.09 242.18 455.91 259.01 464.59"/>
      <polygon class="cls-21" points="977.78 509.82 977.78 532.92 941.95 552.23 925.12 561.3 908.27 570.38 735.42 663.54 718.57 672.62 701.74 681.69 691.08 687.44 691.08 664.33 701.74 658.59 718.57 649.52 735.42 640.43 908.27 547.28 925.12 538.2 941.95 529.12 955.88 521.62 977.78 509.82"/>
      <polygon class="cls-21" points="977.78 509.82 955.88 521.62 941.95 529.12 925.12 538.2 908.27 547.28 735.42 640.43 718.57 649.52 701.74 658.59 691.08 664.33 465.56 548.01 448.71 539.33 431.88 530.65 259.01 441.49 242.18 432.81 225.34 424.11 186.84 404.26 164.94 392.96 225.34 360.41 242.18 351.33 259.01 342.26 431.88 249.1 448.71 240.03 451.64 238.45 465.56 245.63 691.08 361.94 701.74 367.44 718.57 376.12 735.42 384.81 908.27 473.97 925.12 482.65 941.95 491.33 977.78 509.82"/>
      <polygon class="cls-21" points="941.95 552.23 941.95 893.43 925.12 902.49 925.12 561.3 941.95 552.23"/>
      <polygon class="cls-21" points="691.08 664.33 691.08 687.44 465.56 571.12 448.71 562.43 431.88 553.75 259.01 464.59 242.18 455.91 225.34 447.22 164.94 416.07 164.94 392.96 186.84 404.26 225.34 424.11 242.18 432.81 259.01 441.49 431.88 530.65 448.71 539.33 465.56 548.01 691.08 664.33"/>
      <polygon class="cls-21" points="242.18 455.91 242.18 768.09 242.17 768.09 225.34 759.41 225.34 447.22 242.18 455.91"/>
    </g>
    <g>
      <polyline class="cls-15" points="941.95 552.23 941.95 893.43 925.12 902.49"/>
      <polyline class="cls-15" points="225.34 447.22 164.94 416.07 164.94 392.96"/>
      <line class="cls-15" x1="431.88" y1="553.75" x2="259.01" y2="464.59"/>
      <line class="cls-15" x1="691.08" y1="687.44" x2="465.56" y2="571.12"/>
      <line class="cls-15" x1="431.88" y1="553.75" x2="448.71" y2="562.43"/>
      <polyline class="cls-11" points="448.71 656.78 431.88 648.1 431.88 553.75"/>
      <polyline class="cls-15" points="242.18 768.09 242.17 768.09 225.34 759.41 225.34 447.22 242.18 455.91"/>
      <line class="cls-15" x1="735.42" y1="1004.74" x2="735.42" y2="1004.73"/>
      <polyline class="cls-15" points="691.08 664.33 465.56 548.01 448.71 539.33 431.88 530.65 259.01 441.49 242.18 432.81 225.34 424.11 186.84 404.26 164.94 392.96 225.34 360.41 242.18 351.33 259.01 342.26 431.88 249.1 448.71 240.03 451.64 238.45 465.56 245.63 691.08 361.94 701.74 367.44 718.57 376.12 735.42 384.81 908.27 473.97 925.12 482.65 941.95 491.33 977.78 509.82"/>
      <polyline class="cls-15" points="701.74 681.69 691.08 687.44 691.08 664.33 701.74 658.59 718.57 649.52 735.42 640.43 908.27 547.28 925.12 538.2 941.95 529.12 955.88 521.62 977.78 509.82 977.78 532.92 941.95 552.23 925.12 561.3"/>
      <line class="cls-15" x1="908.27" y1="570.38" x2="735.42" y2="663.54"/>
      <line class="cls-15" x1="977.78" y1="533.34" x2="977.78" y2="532.92"/>
      <polyline class="cls-15" points="718.57 672.62 735.42 663.54 735.42 1004.73 718.57 1013.8"/>
      <polygon class="cls-15" points="718.57 672.62 718.57 1013.8 701.74 1005.11 701.74 681.69 718.57 672.62"/>
      <line class="cls-15" x1="718.57" y1="1013.81" x2="718.57" y2="1013.8"/>
      <polygon class="cls-15" points="259.01 464.59 259.01 759.02 259 759.02 242.18 768.09 242.18 455.91 259.01 464.59"/>
      <polygon class="cls-15" points="465.56 571.12 465.56 647.71 465.55 647.71 448.71 656.78 448.71 562.43 465.56 571.12"/>
      <polygon class="cls-15" points="925.12 561.3 925.12 902.49 925.12 902.5 908.27 893.8 908.27 570.38 925.12 561.3"/>
    </g>
  </g>
  <g>
    <polygon class="cls-18" points="630.92 490.71 630.92 498.14 563.91 534.77 563.91 527.34 623.91 494.53 623.93 494.53 630.92 490.71"/>
    <path class="cls-18" d="M469.73,471.38c4.47,2.36,8.98,4.72,13.46,7.08,1.34.72,2.68,1.42,4.01,2.12,3.14,1.65,6.29,3.3,9.44,4.95,4.49,2.38,9,4.75,13.46,7.09,4.54,2.39,9.05,4.77,13.46,7.08,4.6,2.41,9.11,4.78,13.48,7.07,4.68,2.44,9.21,4.81,13.52,7.04,4.71,2.45,9.15,4.75,13.27,6.86l9.05-4.94h.01l11.34-6.2,11.34-6.19,11.32-6.19h.01l10.73-5.87.73-.4c-4.18-2.16-8.61-4.47-13.23-6.88-4.35-2.28-8.86-4.64-13.49-7.07h-.01c-4.4-2.3-8.91-4.67-13.47-7.07-4.43-2.34-8.93-4.69-13.45-7.08-4.48-2.36-8.98-4.73-13.46-7.09-.85-.45-1.69-.88-2.54-1.33-3.63-1.91-7.28-3.83-10.92-5.74-4.51-2.37-9.01-4.74-13.46-7.08-4.55-2.39-9.05-4.75-13.46-7.08-4.61-2.42-9.13-4.78-13.49-7.07-4.69-2.45-9.21-4.81-13.51-7.04-4.18-2.16-8.13-4.21-11.82-6.11l-.08.05-11.41,6.24-11.34,6.19-11.32,6.19-11.34,6.2-9.05,4.94c.22.12.44.22.66.34,3.54,1.83,7.27,3.76,11.12,5.78,4.34,2.25,8.85,4.62,13.49,7.05,4.39,2.3,8.89,4.66,13.48,7.07,4.43,2.34,8.93,4.69,13.46,7.08ZM630.92,490.71l-6.99,3.82h-.01l-60,32.81c-39.02-20-109.58-57.63-151.99-79.53-2.43-1.25-4.75-2.45-6.98-3.6l15.31-8.36,11.32-6.19h.01l11.32-6.2,11.35-6.19,17.7-9.68c5.47,2.81,11.57,5.97,18.13,9.37,4.32,2.25,8.83,4.61,13.51,7.05,4.38,2.29,8.88,4.66,13.48,7.07,4.41,2.32,8.92,4.68,13.46,7.08,4.45,2.34,8.94,4.71,13.46,7.08,4.47,2.36,8.96,4.72,13.45,7.08,4.51,2.38,9,4.74,13.46,7.09,4.54,2.39,9.05,4.75,13.46,7.08,4.6,2.41,9.11,4.78,13.48,7.07,4.66,2.44,9.16,4.8,13.49,7.05,7.11,3.69,13.71,7.11,19.59,10.13Z"/>
    <path class="cls-12" d="M618.35,490.86l-.73.4-10.73,5.87h-.01c-4.1-2.11-8.55-4.4-13.28-6.86l10.79-5.9.73-.39c4.62,2.41,9.06,4.72,13.23,6.88Z"/>
    <path class="cls-18" d="M606.87,497.14l-11.32,6.19c-4.1-2.11-8.56-4.41-13.29-6.86l11.34-6.19c4.73,2.47,9.18,4.75,13.28,6.86Z"/>
    <path class="cls-10" d="M605.11,483.99l-.73.39-10.79,5.9c-4.29-2.22-8.82-4.58-13.53-7.03l10.84-5.92.71-.4h.01c4.64,2.43,9.14,4.79,13.49,7.07Z"/>
    <path class="cls-18" d="M595.55,503.33l-11.34,6.19c-4.1-2.1-8.55-4.4-13.29-6.85l11.34-6.2c4.73,2.45,9.19,4.75,13.29,6.86Z"/>
    <path class="cls-18" d="M593.59,490.27l-11.34,6.19c-4.29-2.23-8.81-4.58-13.52-7.03l11.32-6.19c4.71,2.45,9.24,4.81,13.53,7.03Z"/>
    <path class="cls-12" d="M591.61,476.92l-.71.4-10.84,5.92c-4.35-2.29-8.87-4.65-13.49-7.07l10.86-5.94.71-.38c4.56,2.39,9.07,4.77,13.47,7.07Z"/>
    <path class="cls-18" d="M584.21,509.52l-11.34,6.2h-.01c-4.1-2.11-8.55-4.4-13.28-6.85l11.34-6.2c4.74,2.45,9.19,4.75,13.29,6.85Z"/>
    <path class="cls-18" d="M582.25,496.46l-11.34,6.2c-4.29-2.23-8.81-4.59-13.52-7.04l11.34-6.19c4.71,2.45,9.22,4.8,13.52,7.03Z"/>
    <path class="cls-18" d="M580.06,483.24l-11.32,6.19c-4.35-2.28-8.87-4.64-13.49-7.07l11.32-6.19c4.62,2.42,9.14,4.78,13.49,7.07Z"/>
    <path class="cls-10" d="M578.14,469.85l-.71.38-10.86,5.94c-4.4-2.31-8.88-4.67-13.45-7.08l10.86-5.93.71-.39c4.52,2.38,9.01,4.74,13.45,7.08Z"/>
    <path class="cls-10" d="M572.87,515.73l-9.05,4.94c-4.12-2.11-8.56-4.41-13.27-6.86l9.02-4.93h.01c4.73,2.45,9.18,4.74,13.28,6.85Z"/>
    <path class="cls-10" d="M570.92,502.67l-11.34,6.2h-.01c-4.29-2.24-8.81-4.59-13.52-7.04l11.35-6.2c4.71,2.45,9.22,4.81,13.52,7.04Z"/>
    <path class="cls-18" d="M568.74,489.43l-11.34,6.19c-4.35-2.28-8.87-4.64-13.49-7.07l11.34-6.19c4.62,2.43,9.14,4.79,13.49,7.07Z"/>
    <path class="cls-18" d="M566.57,476.18l-11.32,6.19c-4.4-2.3-8.89-4.67-13.46-7.08l11.32-6.19h.01c4.56,2.41,9.05,4.77,13.45,7.08Z"/>
    <path class="cls-12" d="M564.69,462.78l-.71.39-10.86,5.93h-.01c-4.43-2.32-8.93-4.69-13.46-7.08l10.88-5.94.71-.39c4.48,2.36,8.98,4.73,13.46,7.09Z"/>
    <path class="cls-18" d="M563.91,527.34v7.43c-41.25-21.16-117.73-61.99-158.97-83.14v-7.42c2.23,1.14,4.55,2.35,6.98,3.6,42.42,21.9,112.97,59.53,151.99,79.53Z"/>
    <path class="cls-10" d="M559.57,508.87l-9.02,4.93c-4.31-2.23-8.83-4.6-13.52-7.04l9.02-4.93c4.71,2.45,9.22,4.8,13.52,7.04Z"/>
    <path class="cls-12" d="M557.4,495.63l-11.35,6.2c-4.35-2.28-8.87-4.65-13.49-7.07l11.35-6.2c4.62,2.43,9.14,4.79,13.49,7.07Z"/>
    <path class="cls-18" d="M555.24,482.37l-11.34,6.19c-4.4-2.3-8.89-4.67-13.46-7.07l11.32-6.2h.01c4.56,2.41,9.06,4.78,13.46,7.08Z"/>
    <path class="cls-18" d="M553.11,469.1l-11.32,6.19h-.01c-4.43-2.32-8.93-4.69-13.46-7.08l11.34-6.19c4.53,2.38,9.02,4.75,13.46,7.08Z"/>
    <path class="cls-10" d="M551.23,455.69l-.71.39-10.88,5.94c-4.46-2.36-8.95-4.72-13.45-7.08l10.86-5.94.71-.39c3.64,1.91,7.29,3.83,10.92,5.74.85.45,1.69.88,2.54,1.33Z"/>
    <path class="cls-10" d="M546.06,501.83l-9.02,4.93c-4.38-2.29-8.88-4.66-13.48-7.07l9.01-4.93c4.62,2.42,9.14,4.79,13.49,7.07Z"/>
    <path class="cls-12" d="M543.91,488.56l-11.35,6.2c-4.4-2.31-8.88-4.67-13.45-7.08l11.34-6.19c4.56,2.39,9.06,4.77,13.46,7.07Z"/>
    <path class="cls-18" d="M541.77,475.29l-11.32,6.2c-4.43-2.34-8.94-4.71-13.47-7.09l11.34-6.19c4.53,2.38,9.02,4.75,13.46,7.08Z"/>
    <path class="cls-18" d="M539.65,462.02l-11.34,6.19c-4.46-2.35-8.95-4.72-13.45-7.08l11.34-6.19c4.49,2.36,8.99,4.72,13.45,7.08Z"/>
    <path class="cls-12" d="M537.78,448.61l-.71.39-10.86,5.94c-4.49-2.37-9-4.74-13.46-7.09l10.88-5.94.7-.38c4.45,2.34,8.95,4.71,13.46,7.08Z"/>
    <path class="cls-12" d="M532.56,494.77l-9.01,4.93c-4.41-2.31-8.92-4.68-13.46-7.08-4.46-2.34-8.96-4.71-13.46-7.09-3.15-1.65-6.3-3.3-9.44-4.95-1.33-.71-2.67-1.4-4.01-2.12-4.48-2.36-8.99-4.72-13.46-7.08-4.53-2.38-9.02-4.74-13.46-7.08l9.02-4.93c4.42,2.32,8.92,4.69,13.45,7.08,4.47,2.35,8.96,4.72,13.46,7.09,4.49,2.36,8.99,4.72,13.45,7.08,4.53,2.38,9.02,4.75,13.46,7.08h.01c4.56,2.41,9.05,4.77,13.45,7.08Z"/>
    <path class="cls-12" d="M530.45,481.5l-11.34,6.19h-.01c-4.43-2.32-8.93-4.69-13.46-7.08l11.34-6.2c4.53,2.38,9.04,4.75,13.47,7.09Z"/>
    <path class="cls-18" d="M528.32,468.22l-11.34,6.19c-4.46-2.35-8.95-4.72-13.45-7.08l11.34-6.19c4.49,2.36,8.99,4.73,13.45,7.08Z"/>
    <path class="cls-18" d="M526.2,454.95l-11.34,6.19c-4.49-2.37-8.99-4.74-13.46-7.08l11.34-6.2c4.46,2.35,8.96,4.72,13.46,7.09Z"/>
    <path class="cls-18" d="M524.32,441.53l-.7.38-10.88,5.94c-4.53-2.38-9.02-4.75-13.45-7.08l10.85-5.93.71-.39c4.41,2.32,8.91,4.68,13.46,7.08Z"/>
    <path class="cls-12" d="M516.98,474.41l-11.34,6.2c-4.46-2.36-8.95-4.72-13.45-7.08l11.34-6.2c4.49,2.36,8.99,4.73,13.45,7.08Z"/>
    <path class="cls-18" d="M514.87,461.14l-11.34,6.19c-4.49-2.37-9-4.74-13.46-7.08l11.34-6.19c4.47,2.34,8.96,4.71,13.46,7.08Z"/>
    <path class="cls-18" d="M512.75,447.86l-11.34,6.2c-4.53-2.39-9.02-4.75-13.45-7.09l11.34-6.19c4.42,2.32,8.92,4.69,13.45,7.08Z"/>
    <path class="cls-12" d="M510.86,434.46l-.71.39-10.85,5.93c-4.59-2.41-9.09-4.77-13.48-7.08l10.84-5.92.71-.39c4.36,2.29,8.88,4.65,13.49,7.07Z"/>
    <path class="cls-12" d="M503.53,467.33l-11.34,6.2c-4.49-2.37-8.99-4.74-13.46-7.09l11.34-6.19c4.46,2.34,8.96,4.71,13.46,7.08Z"/>
    <path class="cls-10" d="M501.41,454.06l-11.34,6.19c-4.53-2.39-9.01-4.75-13.43-7.08l11.32-6.2c4.42,2.34,8.92,4.69,13.45,7.09Z"/>
    <path class="cls-10" d="M499.3,440.78l-11.34,6.19c-4.58-2.41-9.08-4.77-13.48-7.07l11.34-6.2c4.39,2.31,8.89,4.67,13.48,7.08Z"/>
    <path class="cls-18" d="M497.37,427.39l-.71.39-10.84,5.92c-4.64-2.43-9.13-4.79-13.48-7.05l10.79-5.9.73-.4c4.29,2.23,8.81,4.59,13.51,7.04Z"/>
    <path class="cls-12" d="M490.08,460.25l-11.34,6.19c-4.53-2.38-9.02-4.75-13.45-7.08l11.34-6.19h.01c4.42,2.32,8.91,4.68,13.43,7.08Z"/>
    <path class="cls-10" d="M487.96,446.97l-11.32,6.2h-.01c-4.58-2.42-9.08-4.78-13.47-7.08l11.32-6.19c4.4,2.3,8.91,4.66,13.48,7.07Z"/>
    <path class="cls-18" d="M485.82,433.7l-11.34,6.2c-4.64-2.43-9.15-4.79-13.49-7.05l11.34-6.2h.01c4.35,2.26,8.85,4.62,13.48,7.05Z"/>
    <path class="cls-18" d="M483.86,420.35l-.73.4-10.79,5.9h-.01c-3.85-2.01-7.56-3.94-11.11-5.78-.22-.12-.44-.24-.66-.34l11.41-6.24.08-.05c3.69,1.9,7.64,3.95,11.82,6.11Z"/>
    <path class="cls-12" d="M476.63,453.18l-11.34,6.19c-4.58-2.41-9.08-4.77-13.48-7.08l11.35-6.19c4.39,2.3,8.89,4.66,13.47,7.08Z"/>
    <path class="cls-10" d="M474.48,439.91l-11.32,6.19c-4.64-2.43-9.14-4.79-13.49-7.05l11.32-6.19c4.34,2.26,8.86,4.62,13.49,7.05Z"/>
    <path class="cls-18" d="M472.32,426.65l-11.34,6.2c-3.85-2.02-7.56-3.94-11.11-5.79-.22-.11-.44-.22-.66-.34l11.34-6.19c.22.11.44.22.66.34,3.55,1.84,7.27,3.77,11.11,5.78Z"/>
    <path class="cls-12" d="M465.29,459.37l-9.02,4.93c-4.59-2.41-9.09-4.77-13.48-7.07l9.02-4.94c4.4,2.31,8.91,4.67,13.48,7.08Z"/>
    <path class="cls-12" d="M463.16,446.1l-11.35,6.19c-4.64-2.43-9.14-4.79-13.48-7.05l11.34-6.19c4.35,2.26,8.86,4.62,13.49,7.05Z"/>
    <path class="cls-12" d="M460.99,432.85l-11.32,6.19c-3.85-2.01-7.56-3.94-11.11-5.79-.22-.11-.45-.22-.66-.34l11.32-6.19c.22.12.44.24.66.34,3.55,1.85,7.27,3.77,11.11,5.79Z"/>
    <path class="cls-12" d="M451.81,452.29l-9.02,4.94c-4.65-2.43-9.15-4.8-13.49-7.05l9.04-4.94c4.34,2.26,8.85,4.62,13.48,7.05Z"/>
    <path class="cls-12" d="M449.67,439.05l-11.34,6.19c-3.85-2.01-7.56-3.94-11.11-5.78-.22-.12-.44-.24-.66-.34l11.34-6.2c.21.12.44.24.66.34,3.55,1.85,7.27,3.79,11.11,5.79Z"/>
    <path class="cls-12" d="M438.33,445.24l-9.04,4.94c-3.86-2.02-7.58-3.95-11.12-5.78-.22-.12-.44-.22-.66-.34l9.05-4.94c.22.11.44.22.66.34,3.55,1.84,7.27,3.77,11.11,5.78Z"/>
    <g>
      <path class="cls-15" d="M563.91,534.77c-41.25-21.16-117.73-61.99-158.97-83.14v-7.42"/>
      <polyline class="cls-15" points="630.92 490.71 630.92 498.14 563.91 534.77 563.91 527.34"/>
      <path class="cls-15" d="M630.92,490.71c-5.89-3.02-12.48-6.44-19.59-10.13-4.33-2.25-8.83-4.61-13.49-7.05-4.38-2.29-8.88-4.66-13.48-7.07-4.41-2.32-8.92-4.68-13.46-7.08-4.46-2.35-8.95-4.71-13.46-7.09-4.48-2.36-8.98-4.72-13.45-7.08-4.52-2.37-9.01-4.74-13.46-7.08-4.54-2.39-9.05-4.75-13.46-7.08-4.6-2.41-9.11-4.78-13.48-7.07-4.67-2.44-9.19-4.8-13.51-7.05-6.56-3.4-12.66-6.56-18.13-9.37l-17.7,9.68-11.35,6.19-11.32,6.2h-.01l-11.32,6.19-15.31,8.36c2.23,1.14,4.55,2.35,6.98,3.6,42.42,21.9,112.97,59.53,151.99,79.53l60-32.81h.01l6.99-3.82Z"/>
      <path class="cls-15" d="M523.55,499.7c-4.41-2.31-8.92-4.68-13.46-7.08-4.46-2.34-8.96-4.71-13.46-7.09-3.15-1.65-6.3-3.3-9.44-4.95-1.33-.71-2.67-1.4-4.01-2.12-4.48-2.36-8.99-4.72-13.46-7.08-4.53-2.38-9.02-4.74-13.46-7.08"/>
      <polyline class="cls-15" points="591.61 476.92 590.9 477.32 580.06 483.24"/>
      <polyline class="cls-15" points="578.14 469.85 577.43 470.23 566.57 476.18"/>
      <polyline class="cls-15" points="564.69 462.78 563.98 463.17 553.12 469.1"/>
      <polyline class="cls-15" points="551.23 455.69 550.53 456.08 539.65 462.02"/>
      <polyline class="cls-15" points="537.78 448.61 537.07 449 526.2 454.95"/>
      <path class="cls-15" d="M510.86,434.46c4.41,2.32,8.91,4.68,13.46,7.08l-.7.38-10.88,5.94"/>
      <polyline class="cls-15" points="510.86 434.46 510.15 434.85 499.3 440.78"/>
      <path class="cls-15" d="M483.86,420.35c4.29,2.23,8.81,4.59,13.51,7.04l-.71.39-10.84,5.92"/>
      <path class="cls-15" d="M460.55,420.53l11.41-6.24.08-.05c3.69,1.9,7.64,3.95,11.82,6.11l-.73.4-10.79,5.9"/>
      <path class="cls-15" d="M572.87,515.73l-9.05,4.94c-4.12-2.11-8.56-4.41-13.27-6.86"/>
      <path class="cls-15" d="M584.21,509.52l-11.34,6.2h-.01c-4.1-2.11-8.55-4.4-13.28-6.85"/>
      <path class="cls-15" d="M595.55,503.33l-11.34,6.19c-4.1-2.1-8.55-4.4-13.29-6.85"/>
      <path class="cls-15" d="M606.87,497.14l-11.32,6.19c-4.1-2.11-8.56-4.41-13.29-6.86"/>
      <path class="cls-15" d="M580.06,483.24c4.71,2.45,9.24,4.81,13.53,7.03l-11.34,6.19"/>
      <path class="cls-15" d="M568.74,489.43c4.71,2.45,9.22,4.8,13.52,7.03l-11.34,6.2"/>
      <path class="cls-15" d="M557.4,495.63c4.71,2.45,9.22,4.81,13.52,7.04l-11.34,6.2h-.01"/>
      <path class="cls-15" d="M546.06,501.83c4.71,2.45,9.22,4.8,13.52,7.04l-9.02,4.93c-4.31-2.23-8.83-4.6-13.52-7.04"/>
      <path class="cls-15" d="M546.06,501.83l-9.02,4.93c-4.38-2.29-8.88-4.66-13.48-7.07l9.01-4.93"/>
      <path class="cls-15" d="M557.4,495.63l-11.35,6.2c-4.35-2.28-8.87-4.65-13.49-7.07"/>
      <path class="cls-15" d="M568.74,489.43l-11.34,6.19c-4.35-2.28-8.87-4.64-13.49-7.07"/>
      <path class="cls-15" d="M566.57,476.18c4.62,2.42,9.14,4.78,13.49,7.07l-11.32,6.19c-4.35-2.28-8.87-4.64-13.49-7.07"/>
      <path class="cls-15" d="M553.11,469.1h.01c4.56,2.41,9.05,4.77,13.45,7.08l-11.32,6.19"/>
      <path class="cls-15" d="M541.79,475.29c4.56,2.41,9.06,4.78,13.46,7.08l-11.34,6.19"/>
      <path class="cls-15" d="M530.45,481.5c4.56,2.39,9.06,4.77,13.46,7.07l-11.35,6.2c-4.4-2.31-8.88-4.67-13.45-7.08"/>
      <path class="cls-15" d="M530.45,481.5l-11.34,6.19h-.01c-4.43-2.32-8.93-4.69-13.46-7.08"/>
      <path class="cls-15" d="M516.98,474.41l-11.34,6.2c-4.46-2.36-8.95-4.72-13.45-7.08"/>
      <path class="cls-15" d="M516.98,474.41c-4.46-2.35-8.95-4.72-13.45-7.08"/>
      <path class="cls-15" d="M541.77,475.29l-11.32,6.2c-4.43-2.34-8.94-4.71-13.47-7.09l11.34-6.19"/>
      <path class="cls-15" d="M539.65,462.02c4.53,2.38,9.02,4.75,13.46,7.08l-11.32,6.19h-.01c-4.43-2.32-8.93-4.69-13.46-7.08"/>
      <path class="cls-15" d="M526.2,454.95c4.49,2.36,8.99,4.72,13.45,7.08l-11.34,6.19c-4.46-2.35-8.95-4.72-13.45-7.08"/>
      <path class="cls-15" d="M512.75,447.86c4.46,2.35,8.96,4.72,13.46,7.09l-11.34,6.19"/>
      <path class="cls-15" d="M501.41,454.06c4.47,2.34,8.96,4.71,13.46,7.08l-11.34,6.19"/>
      <path class="cls-15" d="M490.08,460.25c4.46,2.34,8.96,4.71,13.46,7.08l-11.34,6.2c-4.49-2.37-8.99-4.74-13.46-7.09"/>
      <path class="cls-15" d="M490.08,460.25l-11.34,6.19c-4.53-2.38-9.02-4.75-13.45-7.08"/>
      <path class="cls-15" d="M501.41,454.06l-11.34,6.19c-4.53-2.39-9.01-4.75-13.43-7.08"/>
      <path class="cls-15" d="M499.3,440.78c4.42,2.32,8.92,4.69,13.45,7.08l-11.34,6.2c-4.53-2.39-9.02-4.75-13.45-7.09"/>
      <polyline class="cls-15" points="487.96 446.97 476.64 453.18 476.63 453.18"/>
      <path class="cls-15" d="M463.16,446.1c4.39,2.3,8.89,4.66,13.47,7.08l-11.34,6.19"/>
      <path class="cls-15" d="M451.81,452.29c4.4,2.31,8.91,4.67,13.48,7.08l-9.02,4.93c-4.59-2.41-9.09-4.77-13.48-7.07"/>
      <path class="cls-15" d="M451.81,452.29l-9.02,4.94c-4.65-2.43-9.15-4.8-13.49-7.05"/>
      <path class="cls-15" d="M463.16,446.1l-11.35,6.19c-4.64-2.43-9.14-4.79-13.48-7.05"/>
      <path class="cls-15" d="M474.48,439.91l-11.32,6.19c-4.64-2.43-9.14-4.79-13.49-7.05"/>
      <path class="cls-15" d="M472.32,426.65h.01c4.35,2.26,8.85,4.62,13.48,7.05"/>
      <path class="cls-15" d="M474.48,439.91c-4.64-2.43-9.15-4.79-13.49-7.05"/>
      <path class="cls-15" d="M499.3,440.78l-11.34,6.19c-4.58-2.41-9.08-4.77-13.48-7.07l11.34-6.2c4.39,2.31,8.89,4.67,13.48,7.08Z"/>
      <path class="cls-15" d="M438.33,445.24l-9.04,4.94c-3.86-2.02-7.58-3.95-11.12-5.78-.22-.12-.44-.22-.66-.34l9.05-4.94"/>
      <path class="cls-15" d="M449.22,426.72l11.34-6.19c.22.11.44.22.66.34,3.55,1.84,7.27,3.77,11.11,5.78l-11.34,6.2"/>
      <path class="cls-15" d="M449.22,426.72c.22.12.44.24.66.34,3.55,1.85,7.27,3.77,11.11,5.79l-11.32,6.19"/>
      <path class="cls-15" d="M449.67,439.05l-11.34,6.19c-3.85-2.01-7.56-3.94-11.11-5.78-.22-.12-.44-.24-.66-.34l11.34-6.2c.21.12.44.24.66.34,3.55,1.85,7.27,3.79,11.11,5.79Z"/>
      <path class="cls-15" d="M606.87,497.14c-4.1-2.11-8.55-4.4-13.28-6.86l10.79-5.9.73-.39"/>
    </g>
  </g>
  <g>
    <path class="cls-16" d="M719.45,553.53c2.09,1.09,2.11,4.07.05,5.19l-73.99,40.46c-1.73.94-3.82.97-5.57.06l-86.06-44.96c-2.09-1.1-2.12-4.07-.05-5.2l73.99-40.46c1.72-.94,3.81-.97,5.56-.05l86.07,44.96Z"/>
    <path class="cls-13" d="M719.49,558.72l-73.99,40.46c-1.73.94-3.82.97-5.57.06l-86.06-44.96c-2.09-1.1-2.12-4.07-.05-5.2l73.99-40.46c1.72-.94,3.81-.97,5.56-.05l86.07,44.96c2.09,1.09,2.11,4.07.05,5.19Z"/>
  </g>
  <g>
    <g>
      <path class="cls-9" d="M669.97,527.84h.01c3.24,2.12,6.03,4.91,7.56,8.79,1.34,3.4,1.33,6.63,1.1,8.86-5.17-.48-21.09-1.3-36.48,8.92-9.48,6.29-14.8,14.14-17.44,18.79-3.01.96-11.48,3.23-21.6.12-10.03-3.08-15.73-9.6-17.69-12.08-1.46-1.84-4.29-7.34-2.81-14.04,1.72-7.74,8.27-11.46,9.39-12.08,5.53-3.14,12.17-6.39,19.9-9.27,9.74-3.64,18.68-5.73,26.14-6.96,8.86.04,15.73,1.95,20.1,3.54,3.81,1.39,8.13,2.97,11.83,5.41Z"/>
      <path class="cls-9" d="M642.15,554.41c15.39-10.21,31.32-9.4,36.48-8.92-6.35,5.66-15.51,12.64-27.69,18.55-9.86,4.78-18.95,7.51-26.23,9.15,2.64-4.65,7.96-12.5,17.44-18.79Z"/>
    </g>
    <g>
      <path class="cls-15" d="M624.71,573.2c-3.01.96-11.48,3.23-21.6.12-10.03-3.08-15.73-9.6-17.69-12.08-1.46-1.84-4.29-7.34-2.81-14.04,1.72-7.74,8.27-11.46,9.39-12.08,5.53-3.14,12.17-6.39,19.9-9.27,9.74-3.64,18.68-5.73,26.14-6.96,8.86.04,15.73,1.95,20.1,3.54,3.81,1.39,8.13,2.97,11.83,5.41h.01c3.24,2.12,6.03,4.91,7.56,8.79,1.34,3.4,1.33,6.63,1.1,8.86"/>
      <path class="cls-15" d="M678.64,545.49c-6.35,5.66-15.51,12.64-27.69,18.55-9.86,4.78-18.95,7.51-26.23,9.15,2.64-4.65,7.96-12.5,17.44-18.79,15.39-10.21,31.32-9.4,36.48-8.92Z"/>
      <path class="cls-15" d="M634.59,535.12c5.35-1.96,11.83-3.89,19.27-5.31,5.86-1.11,11.28-1.7,16.1-1.97"/>
    </g>
  </g>
  <g>
    <g>
      <g>
        <polygon class="cls-2" points="805.85 197.56 805.85 440.07 790.74 448.2 790.74 205.7 805.85 197.56"/>
        <polygon class="cls-2" points="805.85 197.56 790.74 205.7 482.58 46.77 467.46 38.97 482.58 30.84 805.85 197.56"/>
        <path class="cls-1" d="M790.74,205.7v242.51l-119.3-61.52-10.38-5.35-44.72-23.06-148.89-76.79V38.97l15.12,7.8,308.16,158.93ZM781.3,432.72v-221.26L482.58,57.4l-5.69-2.94v221.26l.64.33,138.82,71.58,44.72,23.07,10.38,5.34,109.86,56.66Z"/>
        <polygon class="cls-9" points="781.3 211.45 781.3 432.72 671.44 376.05 661.06 370.71 616.35 347.64 477.53 276.06 476.89 275.72 476.89 54.46 482.58 57.4 781.3 211.45"/>
        <path class="cls-2" d="M724.49,429.9v8.87c0,1-.51,2.02-1.53,2.57l-51.93,28.4c-1.77.96-3.7,1.44-5.65,1.44v-8.86c1.95,0,3.88-.48,5.65-1.45l48.45-26.49,3.48-1.9c1.03-.55,1.53-1.57,1.53-2.58Z"/>
        <path class="cls-2" d="M616.35,409.85l22.13,11.42,22.59,11.64v-.19l10.37-5.59h.01v-26.39l51.45,26.53c1.06.55,1.6,1.59,1.6,2.63s-.51,2.03-1.53,2.58l-3.48,1.9-48.45,26.49c-1.77.97-3.7,1.45-5.65,1.45s-3.72-.44-5.41-1.32l-102.51-52.87-3.41-1.76c-1.06-.55-1.59-1.58-1.59-2.62s.51-2.03,1.52-2.59l51.93-28.39c3.24-1.77,7.1-1.91,10.44-.42v37.5Z"/>
        <polygon class="cls-2" points="671.44 400.74 671.44 427.13 671.43 427.13 661.06 432.72 661.06 381.33 671.44 386.68 671.44 400.74"/>
        <path class="cls-2" d="M665.38,462.32v8.86c-1.85,0-3.72-.44-5.41-1.31l-105.92-54.62c-1.06-.55-1.59-1.59-1.59-2.63v-8.86c0,1.04.53,2.06,1.59,2.62l3.41,1.76,102.51,52.87c1.7.88,3.55,1.32,5.41,1.32Z"/>
        <polygon class="cls-2" points="661.06 432.72 661.06 432.91 638.47 421.26 616.35 409.85 616.35 372.35 616.35 358.27 661.06 381.33 661.06 432.72"/>
      </g>
      <g>
        <line class="cls-15" x1="671.44" y1="386.68" x2="790.74" y2="448.2"/>
        <polyline class="cls-15" points="467.46 38.97 467.46 281.48 616.35 358.27"/>
        <polyline class="cls-15" points="790.74 205.7 482.58 46.77 467.46 38.97 482.58 30.84 805.85 197.56"/>
        <polygon class="cls-15" points="781.3 432.72 671.44 376.05 661.06 370.71 616.35 347.64 477.53 276.06 476.89 275.72 476.89 54.46 482.58 57.4 781.3 211.45 781.3 432.72"/>
        <polygon class="cls-15" points="805.85 197.56 805.85 440.07 790.74 448.2 790.74 205.7 805.85 197.56"/>
        <path class="cls-15" d="M665.38,471.18c-1.85,0-3.72-.44-5.41-1.31l-105.92-54.62c-1.06-.55-1.59-1.59-1.59-2.63v-8.86"/>
        <path class="cls-15" d="M671.44,400.74l51.45,26.53c1.06.55,1.6,1.59,1.6,2.63"/>
        <path class="cls-15" d="M665.38,462.32c-1.86,0-3.72-.44-5.41-1.32l-102.51-52.87-3.41-1.76c-1.06-.55-1.59-1.58-1.59-2.62s.51-2.03,1.52-2.59l51.93-28.39c3.24-1.77,7.1-1.91,10.44-.42"/>
        <polyline class="cls-15" points="661.06 381.33 671.44 386.68 671.44 400.74 671.44 427.13 671.43 427.13 661.06 432.72"/>
        <path class="cls-15" d="M724.49,429.9v8.87c0,1-.51,2.02-1.53,2.57l-51.93,28.4c-1.77.96-3.7,1.44-5.65,1.44v-8.86c1.95,0,3.88-.48,5.65-1.45l48.45-26.49,3.48-1.9c1.03-.55,1.53-1.57,1.53-2.58Z"/>
        <line class="cls-15" x1="665.38" y1="462.32" x2="665.38" y2="462.31"/>
        <line class="cls-15" x1="616.35" y1="411.27" x2="616.35" y2="409.85"/>
        <polygon class="cls-15" points="661.06 381.33 661.06 432.72 661.06 432.91 638.47 421.26 616.35 409.85 616.35 372.35 616.35 358.27 661.06 381.33"/>
        <line class="cls-15" x1="638.47" y1="383.73" x2="638.47" y2="383.21"/>
      </g>
    </g>
    <polygon class="cls-14" points="689.78 340.5 679.37 335.14 634.69 312.09 516.89 251.34 516.89 120.1 741.3 235.83 741.3 367.07 689.78 340.5"/>
  </g>
  <g>
    <g>
      <polygon class="cls-17" points="931.13 331.08 931.13 508.87 931.12 508.87 817.53 570.08 817.53 392.31 862.31 368.16 931.13 331.08"/>
      <polygon class="cls-6" points="931.13 331.08 862.31 368.16 817.53 392.31 817.52 392.31 748.71 356.8 862.31 295.59 862.32 295.58 931.13 331.08"/>
      <path class="cls-3" d="M817.53,392.31v177.78l-68.82-35.63v-177.65l68.81,35.5h.01ZM807.31,446.28v-15.79l-48.38-24.96v15.79l48.38,24.96ZM807.31,413.93v-15.81l-48.38-24.96v15.81l48.38,24.96ZM789.67,506.96c.13-5.24-2.94-10.7-6.84-12.2s-7.18,1.55-7.31,6.78c-.13,5.25,2.94,10.71,6.84,12.21,3.9,1.49,7.18-1.55,7.31-6.79ZM784.87,484.63c.04-1.69-.94-3.44-2.21-3.93-1.25-.47-2.3.5-2.35,2.18-.04,1.69.94,3.44,2.21,3.92,1.25.48,2.3-.5,2.35-2.17Z"/>
      <polygon class="cls-17" points="807.31 430.49 807.31 446.28 758.92 421.32 758.92 405.53 807.31 430.49"/>
      <polygon class="cls-17" points="807.31 398.12 807.31 413.93 758.92 388.97 758.92 373.16 807.31 398.12"/>
      <path class="cls-17" d="M782.83,494.76c3.9,1.5,6.97,6.96,6.84,12.2-.13,5.25-3.41,8.28-7.31,6.79-3.9-1.5-6.97-6.96-6.84-12.21.13-5.24,3.41-8.28,7.31-6.78ZM787.32,506.9c.11-4.23-2.34-8.79-5.33-9.93-.39-.15-.75-.22-1.11-.22-1.69,0-2.93,1.99-3,4.86-.11,4.25,2.34,8.8,5.33,9.94.39.14.75.22,1.1.22,1.7,0,2.94-2.01,3.01-4.87Z"/>
      <path class="cls-3" d="M781.98,496.96c3,1.14,5.44,5.7,5.33,9.93-.07,2.87-1.31,4.87-3.01,4.87-.34,0-.71-.08-1.1-.22-3-1.14-5.44-5.7-5.33-9.94.07-2.87,1.31-4.86,3-4.86.35,0,.72.07,1.11.22Z"/>
      <path class="cls-4" d="M782.67,480.7c1.26.48,2.24,2.24,2.21,3.93-.05,1.67-1.1,2.65-2.35,2.17-1.26-.47-2.24-2.23-2.21-3.92.05-1.69,1.1-2.65,2.35-2.18Z"/>
    </g>
    <g>
      <polyline class="cls-15" points="748.71 356.8 862.31 295.59 862.32 295.58 931.13 331.08"/>
      <polyline class="cls-15" points="817.53 392.31 862.31 368.16 931.13 331.08 931.13 508.87 931.12 508.87 817.53 570.08"/>
      <polygon class="cls-15" points="817.53 392.31 817.52 392.31 748.71 356.8 748.71 534.45 817.53 570.08 817.53 392.31"/>
      <line class="cls-15" x1="748.7" y1="534.45" x2="748.53" y2="534.37"/>
      <line class="cls-15" x1="862.31" y1="295.59" x2="862.31" y2="295.58"/>
      <line class="cls-15" x1="862.32" y1="295.58" x2="862.31" y2="295.58"/>
      <line class="cls-15" x1="862.31" y1="473.23" x2="862.13" y2="473.14"/>
      <polygon class="cls-15" points="807.31 446.28 758.92 421.32 758.92 405.53 807.31 430.49 807.31 446.28"/>
      <path class="cls-15" d="M780.32,482.88c.05-1.69,1.1-2.65,2.35-2.18,1.26.48,2.24,2.24,2.21,3.93-.05,1.67-1.1,2.65-2.35,2.17-1.26-.47-2.24-2.23-2.21-3.92Z"/>
      <path class="cls-15" d="M782.36,513.75c3.9,1.49,7.18-1.55,7.31-6.79.13-5.24-2.94-10.7-6.84-12.2s-7.18,1.55-7.31,6.78c-.13,5.25,2.94,10.71,6.84,12.21Z"/>
      <path class="cls-15" d="M787.32,506.9c-.07,2.87-1.31,4.87-3.01,4.87-.34,0-.71-.08-1.1-.22-3-1.14-5.44-5.7-5.33-9.94.07-2.87,1.31-4.86,3-4.86.35,0,.72.07,1.11.22,3,1.14,5.44,5.7,5.33,9.93Z"/>
      <polygon class="cls-15" points="807.31 413.93 758.92 388.97 758.92 373.16 807.31 398.12 807.31 413.93"/>
    </g>
  </g>
  <g>
    <g>
      <path class="cls-23" d="M574.77,537.86c2.94-2.05,6.27-4.18,10.04-6.26h.01c2.16-1.21,4.45-2.39,6.88-3.54,8.19-3.87,15.84-6.31,22.33-7.88h.02c.94-.24,1.88-.45,2.77-.64,6-1.3,23.02-2.95,30.58,6.76,1.63,2.09,2.44,4.25,2.88,5.8,3.03,1.72,5.38,3.55,7.04,5.01,1.21,1.1,1.7,2.77,1.24,4.29-.61,2.09-2.67,2.74-2.87,2.81,3.07,2.76,4.88,5.45,5.67,6.71.77,2.41.04,4.94-1.7,6.27-2.23,1.7-5.87,1.26-7.97-1.36,1.21,1.55,1.97,2.93,2.37,3.72,1.36,2.26,1.21,5.01-.24,6.71-1.91,2.24-5.96,2.5-8.62-.07-.96-.84-1.9-1.67-2.84-2.5-1.57-1.39-3.61-2.13-5.71-2.04-3.21.14-7.49.78-12.11,2.78-4.13,1.79-7.22,4.12-9.37,6.06-1.42,1.3-3.13,2.24-4.95,2.82-2.54.81-5.07,1.64-7.62,2.45-3.21,1.03-6.59,1.38-9.96,1.03-1.39-.15-2.78-.29-4.19-.44-30.95,9.72-61.9,19.44-92.85,29.16-3.48,1.04-10.73,2.68-19.6.81-9.88-2.08-16.29-7.37-18.95-9.85-4.39-4.23-8.78-8.47-13.16-12.7,5.66-3.17,12.05-7.7,18.13-14.13,8.47-8.99,13.22-18.44,15.92-25.68l.14-.39c3.56,3.24,7.14,6.48,10.7,9.71,28.66-5.14,57.32-10.3,85.99-15.44Z"/>
      <path class="cls-8" d="M627.63,854.04c-.17,3.77-.33,7.54-.48,11.31-2.16,2.3-5.21,5.12-9.32,7.73-3.6,2.28-6.98,3.75-9.72,4.72-20.45,6.04-40.89,12.09-61.33,18.14-3.72.79-9.28,1.55-15.95.81-6.36-.7-11.41-2.49-14.8-3.99-1.33-1.03-3.97-3.33-5.7-7.24-1.6-3.63-1.64-6.89-1.55-8.54.02-.64.06-1.29.08-1.92,2.41,2.56,6.44,6.11,12.3,8.61,8.8,3.76,16.81,3.09,20.74,2.43.34-.05.65-.11.92-.15,19.56-3.76,40.73-9.6,62.73-18.57.06-.02.13-.05.19-.08h.01c4-1.64,7.89-3.31,11.69-5.04,1.49-.7,3.47-1.83,5.44-3.67,2.37-2.22,3.8-4.61,4.64-6.42.08.85.11,1.49.12,1.86Z"/>
      <path class="cls-8" d="M618.11,832.61c7.34,7.02,9,15.58,9.4,19.57-.84,1.8-2.26,4.2-4.64,6.42-1.97,1.84-3.95,2.97-5.44,3.67-3.8,1.72-7.69,3.4-11.69,5.04,1.23-5.7,2.68-16.84-1.91-29.26-2.23-6.03-5.27-10.69-7.89-14.01,3.68-.05,13.79.57,22.16,8.59Z"/>
      <path class="cls-8" d="M603.84,838.03c4.59,12.42,3.14,23.57,1.91,29.26h-.01c-.06.04-.13.06-.19.08-22,8.96-43.17,14.8-62.73,18.57-.27.05-.58.11-.92.15-.07-16.84-9.57-29.19-19.95-30.51-4.89-.61-9.31,1.31-12.37,3.24.15-3.63.32-7.28.48-10.91.02-.75.06-1.5.09-2.25.29-6.61,4.32-6.91,5.13-7.08,0,0,1.16-.25,4.06.81,1.62.58,3.79,1.58,6.59,3.24.01.01.12.07.26.15.01.01.02.01.02.01,0,0,.14.08.41.2h.01c1.92.92,10.16,4.4,19.56,2.32,6.42-1.42,11.18-4.94,14.45-8.3,3.22-3.31,4.98-6.48,5.41-7.29,1.06-.38,2.16-.74,3.3-1.1,1.51,1.63,3.4,4.03,4.93,7.29,1.58,3.37,2.21,6.44,2.48,8.59.9,1.53,2.7,2.24,4.27,1.75,1.29-.41,2.24-1.59,2.44-3.01-.08-2.11-.46-5.47-2.08-9.24-1.43-3.35-3.31-5.79-4.79-7.37.29-.07.59-.14.9-.21.01.29.04.51.05.57,1.59,1.6,3.81,4.22,5.56,7.95,1.59,3.37,2.22,6.44,2.49,8.59.9,1.53,2.7,2.24,4.27,1.75,1.29-.41,2.24-1.59,2.44-3.01-.08-2.11-.47-5.47-2.08-9.24-1.65-3.82-3.86-6.45-5.37-7.99.51-.07,1-.14,1.49-.2-.06.66.02,1.2.04,1.31,1.58,1.6,3.8,4.21,5.56,7.94,1.58,3.39,2.22,6.45,2.48,8.59.9,1.55,2.7,2.25,4.27,1.75,1.3-.41,2.24-1.59,2.44-3.01-.08-2.11-.46-5.47-2.08-9.24-1.66-3.88-3.92-6.53-5.43-8.06.39-.04.78-.05,1.16-.07.24-.02.63-.04,1.14-.05,2.62,3.33,5.66,7.99,7.89,14.01Z"/>
      <path class="cls-22" d="M599.08,832.19c1.62,3.76,1.99,7.12,2.08,9.24-.2,1.42-1.14,2.59-2.44,3.01-1.57.51-3.37-.2-4.27-1.75-.26-2.13-.9-5.2-2.48-8.59-1.76-3.73-3.97-6.33-5.56-7.94-.01-.11-.09-.65-.04-1.31.06-.73.28-1.62.97-2.21,1.4-1.23,4.36-.93,6.3,1.47h.01c1.51,1.53,3.76,4.19,5.43,8.07Z"/>
      <path class="cls-22" d="M590.25,833.04c1.6,3.76,1.99,7.12,2.08,9.24-.2,1.42-1.16,2.59-2.44,3.01-1.57.5-3.37-.21-4.27-1.75-.27-2.15-.9-5.21-2.49-8.59-1.75-3.73-3.96-6.35-5.56-7.95-.01-.06-.04-.27-.05-.57-.04-.78.05-2.12.98-2.94,1.4-1.24,4.36-.93,6.3,1.47.02.02.05.06.08.08,1.51,1.53,3.72,4.16,5.37,7.99Z"/>
      <path class="cls-22" d="M581.42,834.02c1.62,3.76,1.99,7.12,2.08,9.24-.2,1.42-1.16,2.59-2.44,3.01-1.57.5-3.37-.21-4.27-1.75-.27-2.15-.9-5.21-2.48-8.59-1.53-3.26-3.42-5.66-4.93-7.29-.22-.24-.44-.46-.64-.66-.02-.14-.17-1.12.11-2.09.74-.75,1.36-1.42,1.83-1.96,1.53-.5,3.75.08,5.3,2.02.21.21.44.44.66.7,1.47,1.58,3.36,4.02,4.79,7.37Z"/>
      <path class="cls-19" d="M507.54,722.68c-5.94,2.09-12.03,4.14-18.26,6.17-.68.22-1.37.45-2.06.67-13.76,4.46-28.21,8.74-43.34,12.75-6.07,1.62-12.07,3.14-17.99,4.58-13.98,3.37-27.49,6.27-40.5,8.76-2.55.28-16.24,1.58-33.18-1.88,3.01-6.98,3.14-13.56,2.84-17.65-.5-5.99-1.05-12.04-1.65-18.15.14.04.28.07.42.09,11.88-1.36,32.01-5.23,53.44-17.81,4.95-2.91,9.45-5.98,13.51-9.07,4.05-3.08,7.64-6.19,10.84-9.21,5.1-4.8,9.15-9.37,12.27-13.2-.44-3.82-.88-7.65-1.33-11.49,13.1-3.46,26.21-6.9,39.31-10.34h0c4.18-1.11,8.35-2.21,12.53-3.3,2.24-.55,26.8-6.09,45.88,10.98,14.57,13.01,16.1,30.4,16.35,34.16,4.97,44.74,9.93,89.48,14.89,134.22-.2.25-.48.58-.83.98-.38.12-.71.31-.99.54-.45.39-.7.9-.84,1.42-1.93,1.96-4.78,4.48-8.52,6.85-4.82,3.05-11.1,5.85-18.82,6.85-2.41.31-4.71.41-6.92.35h-.01c-5.89-.13-11.06-1.4-15.32-3.01-.99-.38-1.92-.77-2.81-1.16-5.01-2.25-8.33-4.73-9.45-5.59-1.18-6.78-2.37-13.58-3.56-20.36-.8-4.67-1.63-9.34-2.44-14.01-.11-.6-.21-1.2-.32-1.82h0c-.2-1.13-.39-2.26-.59-3.4-.15-.9-.32-1.8-.48-2.71-1.34-7.73-2.7-15.45-4.05-23.18h0s2.89-1.5,2.89-1.5c.02-.01.06-.02.08-.04,9.53-3.94,15.77-13.28,15.71-23.55-.01-2.97-.55-5.87-1.56-8.56-1.16-3.1-2.9-5.97-5.14-8.4Z"/>
      <path class="cls-8" d="M560.33,832.75l.33,4.28c-3.27,3.36-8.03,6.89-14.45,8.3-9.4,2.08-17.63-1.4-19.56-2.32h-.01c-.27-.12-.41-.2-.41-.2,0,0-.01,0-.02-.01-.14-.08-.25-.14-.26-.15-2.81-1.66-4.98-2.67-6.59-3.24l-.11-2.45c4.26,1.6,9.44,2.88,15.32,3.01h.01c2.22.06,4.52-.05,6.92-.35,7.73-1,14-3.8,18.82-6.85Z"/>
      <path class="cls-22" d="M541.91,886.1c-3.93.66-11.94,1.33-20.74-2.43-5.86-2.5-9.9-6.05-12.3-8.61.24-5.41.48-10.82.72-16.23,3.07-1.93,7.48-3.86,12.37-3.24,10.38,1.32,19.87,13.67,19.95,30.51Z"/>
      <path class="cls-8" d="M447.59,851.57v-1.53c.54.14,1.07.26,1.6.37s1.05.2,1.57.28c.51.08,1.01.15,1.5.2.5.06.98.11,1.45.14.28.02.57.05.84.06,3.48.19,6.36-.14,8.28-.46.34-.06.65-.11.92-.17,16.56-3.17,34.29-7.86,52.69-14.67.88.39,1.82.78,2.81,1.16l.11,2.45c-2.9-1.06-4.06-.81-4.06-.81-.81.17-4.84.47-5.13,7.08-.04.75-.07,1.5-.09,2.25-14.12,4.19-28.25,8.36-42.38,12.54-3.72.8-9.27,1.55-15.94.81-2.43-.27-4.66-.7-6.69-1.19h-.01c-.44-.52-.91-1-1.4-1.45v-2.36c.57-.27,1.14-.53,1.71-.79.65-.46,1.62-1.3,2.03-2.61.14-.44.2-.87.2-1.3Z"/>
      <path class="cls-5" d="M519.43,970.35c0,4.49-1.77,8.56-4.65,11.56.57-1.67.87-3.47.87-5.33,0-7.34-4.72-13.56-11.29-15.81v-1.38c3.27.93,6.51-.26,8.33-2.47,4.09,3.05,6.73,7.93,6.73,13.42Z"/>
      <path class="cls-5" d="M515.65,976.58c0,1.86-.31,3.66-.87,5.33h-.01c-2.22,6.62-8.48,11.38-15.84,11.38-9.22,0-16.71-7.49-16.71-16.71,0-4.49,1.78-8.59,4.67-11.58,1.32-1.38,2.88-2.52,4.6-3.39,2.24-1.12,4.77-1.75,7.44-1.75,1.9,0,3.74.32,5.44.91,6.57,2.24,11.29,8.47,11.29,15.81Z"/>
      <path class="cls-20" d="M514.24,739.64c.06,10.27-6.18,19.62-15.71,23.55-.02.01-.06.02-.08.04l-2.89,1.49h0s-6.57,3.4-6.57,3.4l-57.09,29.45-73.04,37.69-2.58,1.33-.22.12c-8.48,4.38-18.55,4.38-27.03,0l-.29-.15-2.55-1.32-47.19-24.35c1.58-.81,3.21-1.73,4.88-2.76,4.64-2.84,8.41-5.84,11.39-8.54-3.93-1.99-7.84-4-11.77-5.99-1.21,1.26-3.21,3.04-6.05,4.49-2.25,1.14-5.72,2.93-8.78,2.06-3.97-1.11-6.86-4.98-6.96-9.51-.21-2.83-.42-5.66-.64-8.49-.39-5.28-.79-10.57-1.18-15.85l69.13,35.67c8.48,4.38,18.55,4.38,27.03,0l71.51-36.89,48.93-25.24s.04-.02.06-.04l5.01-2.58c.88-.41,1.83-.81,2.81-1.21.25-.11.5-.2.74-.29.75-.31,1.53-.59,2.34-.87.34-.13.7-.25,1.05-.37.54-.18,1.1-.35,1.66-.53.91-.28,1.85-.54,2.82-.79.46-.12.92-.24,1.39-.34.52-.13,1.06-.25,1.6-.37,6.55-1.37,12.29-1.56,16.7-1.36,1,2.69,1.55,5.59,1.56,8.56Z"/>
      <path class="cls-20" d="M514.17,952.78c.01.6-.07,1.19-.22,1.77-.24.87-.67,1.67-1.25,2.37-1.82,2.21-5.06,3.4-8.33,2.47-.11-.02-.2-.05-.31-.08-3.28-1.12-6.56-2.24-9.84-3.36-.91-.32-1.83-.63-2.74-.93-42.78-14.63-85.54-29.24-128.32-43.87-2.42,1.25-4.82,2.5-7.24,3.75v-13.36c2.42-1.25,4.82-2.5,7.24-3.75,46.97,16.05,93.92,32.11,140.89,48.16,1.78.57,3.56.51,5.13-.02,2.31-.75,4.14-2.52,4.75-4.73.15-.52.22-1.07.22-1.63v13.22Z"/>
      <path class="cls-20" d="M510.4,933.02c2.42,1.51,3.79,4.07,3.76,6.55,0,.55-.07,1.11-.22,1.63-.61,2.21-2.44,3.97-4.75,4.73-1.57.53-3.35.59-5.13.02-46.97-16.05-93.92-32.11-140.89-48.16-2.42,1.25-4.82,2.5-7.24,3.75v97.91c-1.96,5.37-6.78,9.11-12.28,9.54-.38.04-.77.05-1.14.05s-.77-.01-1.14-.05c-5.5-.44-10.32-4.18-12.28-9.54v-97.91c-2.42-1.25-4.82-2.5-7.24-3.75-46.97,16.05-93.92,32.11-140.89,48.16-1.78.57-3.56.51-5.13-.02-2.31-.75-4.14-2.52-4.75-4.73-.15-.52-.22-1.07-.22-1.63-.02-2.48,1.34-5.04,3.76-6.55,42.93-16.08,85.87-32.14,128.8-48.22,3.35-1.25,6.71-2.51,10.06-3.76.24-1.55.48-3.09.73-4.64-23.31-10.72-46.63-21.44-69.93-32.17-1.55-.71-3.08-1.42-4.62-2.12-.65-.46-1.62-1.3-2.03-2.61-.14-.44-.2-.87-.2-1.3,0-2.45,1.99-4.79,3.57-5.94,3.72-2.7,8.28-1.11,8.78-.93,23.76,9.81,47.51,19.63,71.27,29.45v27.39c0,5.8,9.59,10.5,21.48,10.56,11.89-.06,21.48-4.75,21.48-10.56v-27.39c22.03-9.11,44.05-18.21,66.09-27.32,1.72-.71,3.46-1.43,5.18-2.13.5-.18,5.06-1.77,8.78.93,1.58,1.16,3.57,3.49,3.57,5.94,0,.42-.06.86-.2,1.3-.41,1.31-1.38,2.15-2.03,2.61-1.55.71-3.08,1.42-4.62,2.12-1.11.51-2.23,1.03-3.34,1.53-2.22,1.01-4.42,2.04-6.64,3.05-19.98,9.19-39.97,18.39-59.95,27.58.25,1.55.5,3.09.73,4.64,3.35,1.25,6.71,2.51,10.06,3.76,42.93,16.08,85.87,32.14,128.8,48.22Z"/>
      <path class="cls-20" d="M512.68,731.07c-4.41-.2-10.16-.01-16.7,1.36-.54.12-1.09.24-1.6.37-.47.11-.93.22-1.39.34-.97.25-1.91.51-2.82.79-.57.18-1.12.35-1.66.53-.35.12-.71.24-1.05.37-.8.28-1.58.57-2.34.87-.26.09-.5.19-.74.29-.98.4-1.92.8-2.81,1.21-1.9.87-3.57,1.76-5.01,2.58-.02.01-.04.02-.06.04l-48.93,25.24-71.51,36.89c-8.48,4.38-18.55,4.38-27.03,0l-69.13-35.67c-.2-2.67-.4-5.32-.6-7.97l31.09,16.08c2.11,1.26,6.03,3.35,11.31,4.66,3.1.78,6.69,1.29,10.65,1.2,7.9-.17,13.98-2.62,17.33-4.27,3.23-1.62,7.86-4.32,12.5-8.73,2.7-2.56,6.5-6.2,9.34-12.02.25-.51.47-1,.7-1.51,16.94,3.46,30.63,2.16,33.18,1.88,13.01-2.49,26.53-5.39,40.5-8.76,5.92-1.44,11.91-2.96,17.99-4.58,15.12-4.01,29.57-8.29,43.34-12.75.7-.22,1.38-.45,2.06-.67,6.23-2.03,12.31-4.08,18.26-6.17,2.24,2.43,3.99,5.3,5.14,8.4Z"/>
      <path class="cls-8" d="M506.99,830.2c1.12.86,4.43,3.34,9.45,5.59-18.4,6.82-36.13,11.5-52.69,14.67-.27.06-.58.11-.92.17-.06-16.84-9.58-29.2-19.95-30.51-4.89-.63-9.31,1.31-12.37,3.26.19-4.4.39-8.79.58-13.19.29-6.59,4.32-6.9,5.12-7.08,0,0,1.03-.21,3.6.66h.01c1.66.57,3.96,1.58,7.05,3.41,0,0,.11.07.26.15.01,0,.02.01.02.01.04.02,9.24,4.89,19.97,2.52,6.12-1.36,10.75-4.64,14-7.87.06-.06.12-.12.17-.18,3.41-3.42,5.26-6.72,5.71-7.56,1.05-.37,2.15-.73,3.29-1.1,1.51,1.63,3.4,4.03,4.93,7.3,1.59,3.37,2.22,6.44,2.49,8.58.9,1.55,2.7,2.25,4.27,1.75.57-.18,1.06-.51,1.45-.94,1.19,6.78,2.38,13.58,3.56,20.36Z"/>
      <path class="cls-23" d="M469.8,424.13c2.45-.67,4.69-1.11,6.64-1.39,3.17-.45,4.51,1.18,5.17,1.84,1.53,1.55,1.8,3.61,1.82,4.79,2.72-.31,5.08-.32,6.94-.24,5.78.25,7.49,3.09,7.93,3.7,1.07,1.46,1.42,3.07,1.52,4.25,4.94-.65,8.67,1.88,9.07,4.53.35,2.34-1.95,4.46-2.34,4.8-.88.83-2.19,1.85-3.92,2.75-1.82.93-3.48,1.4-4.71,1.65-3.87,1.05-8.09,2.39-12.56,4.14-5.07,1.98-9.57,4.13-13.48,6.23-.21.13-2.84,1.77-3,5-.14,3.22,2.3,5.11,2.5,5.25,3.47,1.01,6.94,2.03,10.39,3.05,4.59,1.92,6.25,6.98,4.48,10.25-1.31,2.39-4.45,3.77-7.73,3.24-3.63-.59-7.27-1.19-10.91-1.78-3.95.21-9.04.11-14.8-.98-4.42-.83-8.22-2.04-11.3-3.26-3.33,1.96-6.65,3.93-9.97,5.89-5.85-5.7-11.71-11.38-17.56-17.08,0-.02-.01-.05-.01-.07-1.03-1.03-2.15-2.1-3.34-3.18l-.07-.07c-2.29-2.09-4.89-4.26-7.82-6.42,2.63-1.34,5.26-2.69,7.89-4.03,3.49-1.79,6.98-3.57,10.46-5.37,1.69-3.61,4.74-8.87,10.13-13.68,2.63-2.36,5.25-4.09,7.51-5.35,0,0,2.95-2.65,10.08-6.51,3.68-1.98,7.15-3.47,10.21-4.59,4.18-1.53,6.53-.15,7.44.24,1.5.65,2.58,1.6,3.31,2.41Z"/>
      <path class="cls-20" d="M504.36,959.39v1.38c-1.7-.59-3.54-.91-5.44-.91-2.68,0-5.2.63-7.44,1.75v-6.59c.91.31,1.83.61,2.74.93,3.28,1.12,6.56,2.24,9.84,3.36.11.04.2.06.31.08Z"/>
      <path class="cls-22" d="M503.43,809.84c-.39.44-.88.77-1.45.94-1.57.51-3.37-.2-4.27-1.75-.27-2.13-.9-5.2-2.49-8.58-1.53-3.27-3.42-5.67-4.93-7.3-.22-.24-.42-.45-.63-.65-.02-.15-.18-1.17.11-2.16h.01c.05-.19.11-.35.2-.52t0-.01c.14-.31.34-.59.61-.83,1.4-1.23,4.36-.93,6.3,1.47.21.21.44.44.66.7,1.04,1.12,2.28,2.67,3.43,4.66.81,4.67,1.64,9.34,2.44,14.01Z"/>
      <path class="cls-8" d="M500.67,794.01c.11.61.21,1.21.32,1.82-1.16-1.99-2.39-3.54-3.43-4.66.29-.07.59-.14.9-.2.01.29.04.51.05.57.64.65,1.39,1.47,2.17,2.47h0Z"/>
      <path class="cls-22" d="M500.08,790.61c.2,1.13.39,2.26.59,3.39-.78-.99-1.53-1.82-2.17-2.47-.01-.06-.04-.27-.05-.57-.05-.77.05-2.12.98-2.95.05-.05.11-.09.17-.12.17.91.33,1.82.48,2.71Z"/>
      <path class="cls-5" d="M491.48,957.96v3.64c-1.72.86-3.28,2.01-4.6,3.39.92-2.74,2.51-5.14,4.6-7.03Z"/>
      <path class="cls-5" d="M490.16,187.17c5.56,18.15-3.82,41.19-23.86,54.16-6.58,4.26-14.31,7.43-23.04,9,1.32,1.79,11.23,15.71,6.46,33.07-3.51,12.86-12.9,19.65-15.62,21.47.14,12.31.27,24.63.41,36.93.29,6.97-4.22,11.49-7.43,11.26-2.81-.2-5.96-4.13-6.24-9.55-.02-1.11-.06-2.22-.08-3.33.01-.74-.01-1.43-.06-2.04-.05-1.77-.09-3.55-.14-5.33-.11-.51-1.2-5.25-5.56-7.08-4.14-1.73-8.01.52-9.33,1.29-1.13.66-2.06,1.44-2.82,2.24-.77.83-1.31,1.59-1.66,2.17h0c-.2.33-.37.64-.52.93-.09.17-.17.31-.21.41h-.01c-.12.26-.21.5-.31.72-.07.19-.14.38-.2.54-1.5.88-13.76,8.49-15.55,23.63-.98,8.34,1.67,15.09,3.95,19.18.33.6.7,1.23,1.11,1.86.12.19.24.37.35.54.13.19.25.37.38.54.12.17.24.33.37.5.12.17.24.33.35.48-4.08,6.5-16.77,24.81-41,33.19-12.36,4.28-23.39,4.47-30.67,3.94l-.57-.04c-65.65-13.71-114.86-61.81-123.71-119.32-7.62-49.55,17.39-88.66,25.11-99.83,4.8-8.81,20.05-34.15,52.06-49.29,34.3-16.22,65.71-10.3,75.16-8.14,3.04-2.45,24.88-19.49,54.34-13.66,25.58,5.05,38.96,23.77,41.61,27.66,22.58,1.38,41.59,14.56,46.9,31.88Z"/>
      <path class="cls-19" d="M489.99,789.82s-.01,0,0,.01c-.09.17-.15.33-.2.51h-.01c-1.19,1.39-4.2,4.67-8.94,7.81-4.8,3.18-11.37,6.24-19.63,7.08-8.7.88-16.05-1.04-21.43-3.34-3.54-1.51-6.22-3.17-7.88-4.33l57.09-29.45c.55,11.96.93,20.16,1,21.71Z"/>
      <path class="cls-22" d="M481.86,646.89h0c-13.1,3.46-26.21,6.9-39.31,10.36-1.6-13.51-3.31-27.13-5.14-40.87,6.73.08,15.36,1.52,24.04,6.64,12,7.07,17.8,17.43,20.42,23.87Z"/>
      <path class="cls-22" d="M481.56,737.21l-5.01,2.58c1.44-.83,3.11-1.71,5.01-2.58Z"/>
      <path class="cls-8" d="M480.83,798.15c.15,1.23.31,2.44.46,3.67-.05.06-.11.12-.17.18-3.26,3.23-7.88,6.51-14,7.87-10.73,2.37-19.93-2.5-19.97-2.52,0,0-.01-.01-.02-.01-.15-.08-.26-.15-.26-.15-3.09-1.83-5.39-2.84-7.05-3.41h-.01c-.01-.63-.02-1.25-.04-1.88,5.38,2.3,12.73,4.22,21.43,3.34,8.26-.84,14.83-3.89,19.63-7.08Z"/>
      <path class="cls-22" d="M433.56,588.61c1.05,7.3,2.08,14.65,3.08,22.03.26,1.91.52,3.82.77,5.73,1.83,13.74,3.54,27.36,5.14,40.87.45,3.83.9,7.67,1.33,11.49-3.11,3.83-7.17,8.4-12.27,13.2-3.2,3.02-6.79,6.13-10.84,9.21-4.06,3.09-8.55,6.16-13.51,9.07-21.43,12.59-41.57,16.45-53.44,17.81-.14-.02-.28-.06-.42-.09-1-10.3-2.16-20.76-3.48-31.39-2.13-17.28-4.59-34.09-7.31-50.4-3.44-20.74-7.31-40.68-11.48-59.82-2.22-11.08-5.2-23.25-9.27-36.2-4.27-13.58-9-25.77-13.75-36.52-3.31-6.29-8.62-14.65-16.88-22.91-5.02-5.04-10.14-9.02-14.93-12.17,1.92-5.69,6.13-14.74,15.22-22.35,10.26-8.6,21.23-10.77,26.72-11.37-.33,5.47-.67,10.93-1,16.41,4.21,5.05,8.59,8,12.03,9.77,23.24,11.92,50.35-5.76,52.56-7.24v-4.58c5.21,2.17,11.39,5.26,17.89,9.71,1.05.72,2.06,1.44,3.04,2.16,2.93,2.16,5.53,4.33,7.82,6.42l.07.07c1.12,1.09,2.23,2.17,3.35,3.26,5.85,5.7,11.71,11.38,17.56,17.08,16.34,15.88,32.67,31.76,49.01,47.64-.5,2.06-1.27,4.85-2.48,8.1l-.14.39c-2.7,7.24-7.45,16.69-15.92,25.68-6.07,6.43-12.47,10.96-18.13,14.13-.42.25-.85.48-1.27.71-3.42,1.83-6.52,3.16-9.06,4.12Z"/>
      <path d="M472.94,286.34c2.47,7.58,4.48,18.09,2.9,30.33-.77,5.93-2.24,11.15-3.92,15.53-1.84-4.81-3.85-11.85-4.01-20.49-.22-11.08,2.65-19.91,5.02-25.37Z"/>
      <path class="cls-23" d="M404.66,395.17c5.67,3.13,11.9,2.06,14.57-1.4,2.81-3.67.93-9.08.73-9.65-1.67-3.15-4.35-9.24-4.64-17.33-.25-7.15,1.49-12.79,2.75-16.01.54-1.01,1.07-2.22,1.52-3.57.86-2.62,1.14-5.04,1.18-7.03.02,1.11.06,2.22.08,3.33.28,5.43,3.43,9.35,6.24,9.55,3.21.22,7.73-4.29,7.43-11.26-.14-12.3-.27-24.62-.41-36.93,2.71-1.82,12.1-8.61,15.62-21.47,4.77-17.36-5.14-31.28-6.46-33.07,8.73-1.57,16.45-4.74,23.04-9,1.25,2.88,2.59,6.58,3.59,10.98-1.89,1.27-4.18,3.1-6.43,5.65-2.04,2.3-3.47,4.55-4.46,6.4-.94,2.78.21,5.11,1.53,5.43.96.24,2.18-.53,3.04-1.71.88-1.12,1.98-2.35,3.31-3.6,1.51-1.39,2.98-2.5,4.32-3.36.41,5.5.04,10.2-.48,13.74-.35.97-.72,2.01-1.07,3.1-2.76,8.32-5.56,20.26-5.27,34.71.21,10.9,2.09,20.11,4.13,27.09.17.59.33,1.16.51,1.71.75,4.59,5.47,36.42-17.09,62.88-26.76,31.39-67.35,26.42-70.11,26.03v23.34c-2.21,1.49-29.32,19.17-52.56,7.24-3.44-1.77-7.82-4.72-12.03-9.77.33-5.47.67-10.93,1-16.41.34-5.64.68-11.26,1.03-16.9,7.28.53,18.31.34,30.67-3.94,24.23-8.39,36.92-26.69,41-33.19,1.21,1.92,2.74,4.07,4.64,6.29,2.31,2.68,4.61,4.8,6.65,6.46.79.65,1.62,1.19,2.44,1.65h.01Z"/>
      <path d="M470.72,256.79c.21,1.49.38,2.94.48,4.33-1.33.86-2.81,1.97-4.32,3.36-1.33,1.25-2.43,2.48-3.31,3.6-.86,1.18-2.09,1.95-3.04,1.71-1.32-.32-2.48-2.64-1.53-5.43.99-1.85,2.42-4.1,4.46-6.4,2.25-2.55,4.54-4.38,6.43-5.65.32,1.42.6,2.91.84,4.48Z"/>
      <path class="cls-4" d="M469.65,277.97c.99,2.11,2.18,4.94,3.29,8.37-2.37,5.46-5.25,14.3-5.02,25.37.17,8.63,2.17,15.68,4.01,20.49-1.1,2.89-2.28,5.41-3.42,7.57-2.04-6.98-3.92-16.19-4.13-27.09-.28-14.45,2.51-26.4,5.27-34.71Z"/>
      <path class="cls-22" d="M462.83,850.63c-1.92.32-4.8.65-8.28.46-.27-.01-.55-.04-.84-.06-.47-.04-.96-.08-1.45-.14-.48-.05-.99-.12-1.5-.2-.52-.08-1.04-.18-1.57-.28s-1.06-.22-1.6-.37v-11.83c0-2.45-1.99-4.79-3.57-5.94-3.72-2.7-8.28-1.11-8.78-.93-1.72.71-3.46,1.43-5.18,2.13.15-3.36.31-6.72.45-10.1,3.07-1.95,7.48-3.88,12.37-3.26,10.37,1.31,19.89,13.67,19.95,30.51Z"/>
      <path class="cls-20" d="M448.27,865.68c2.89,3,4.66,7.07,4.66,11.57,0,9.24-7.48,16.71-16.71,16.71-7.36,0-13.6-4.75-15.83-11.35-.58-1.69-.88-3.49-.88-5.37,0-4.93,2.13-9.35,5.52-12.42h.01c1.65-1.49,3.6-2.64,5.74-3.39,1.05-.37,2.16-.63,3.29-.77t.02-.01c.7-.08,1.4-.13,2.12-.13,2.68,0,5.2.63,7.44,1.76,1.73.85,3.29,2.01,4.61,3.39Z"/>
      <path class="cls-20" d="M447.59,850.04v1.53c0,.42-.06.86-.2,1.3-.41,1.31-1.38,2.15-2.03,2.61-.57.26-1.14.52-1.71.79-.64.29-1.27.58-1.91.87-.81.38-1.62.74-2.43,1.12-1.73.8-3.48,1.6-5.23,2.41t-.02.01c-1.13.14-2.24.4-3.29.77-2.15.74-4.09,1.9-5.74,3.39h-.01c-3.07,1.4-6.12,2.82-9.19,4.23-11.41,5.24-22.82,10.49-34.23,15.73-3.35-1.25-6.71-2.51-10.06-3.76-.24-1.55-.48-3.09-.73-4.64,19.98-9.19,39.97-18.39,59.95-27.58,2.22-1.01,4.42-2.04,6.64-3.05,1.11-.51,2.23-1.03,3.34-1.53,1.55-.71,3.08-1.42,4.62-2.12.65-.46,1.62-1.3,2.03-2.61.14-.44.2-.87.2-1.3v11.83Z"/>
      <path class="cls-20" d="M445.07,860.08c1.4,1.62,2.5,3.51,3.2,5.6-1.32-1.38-2.88-2.54-4.61-3.39v-3.67c.5.45.97.93,1.4,1.45h.01Z"/>
      <path class="cls-20" d="M443.65,858.62v3.67c-2.24-1.13-4.77-1.76-7.44-1.76-.72,0-1.43.05-2.12.13,1.75-.8,3.49-1.6,5.23-2.41.81-.38,1.62-.74,2.43-1.12.64-.29,1.27-.58,1.91-.87v2.36Z"/>
      <path class="cls-20" d="M415.83,869.06c3.07-1.42,6.12-2.83,9.19-4.23-3.39,3.07-5.52,7.49-5.52,12.42,0,1.88.31,3.68.88,5.37-2.89-3.01-4.67-7.09-4.67-11.59,0-.66.04-1.31.12-1.96Z"/>
      <path class="cls-23" d="M404.65,395.17c-.83-.46-1.65-1-2.44-1.65-2.04-1.66-4.34-3.79-6.65-6.46-1.9-2.22-3.42-4.36-4.64-6.29-.12-.15-.24-.32-.35-.48-.13-.17-.25-.33-.37-.5-.13-.18-.25-.35-.38-.54-.12-.18-.24-.35-.35-.54-.41-.64-.78-1.26-1.11-1.86-2.28-4.09-4.93-10.84-3.95-19.18,1.78-15.13,14.05-22.74,15.55-23.63.06-.17.13-.35.2-.54.09-.22.19-.46.31-.71h.01c.05-.12.12-.26.21-.42.15-.29.32-.6.52-.92h0c.35-.59.9-1.36,1.66-2.18.75-.8,1.69-1.58,2.82-2.24,1.32-.77,5.19-3.02,9.33-1.29,4.35,1.83,5.45,6.57,5.56,7.08.05,1.78.09,3.56.14,5.33.01.68.04,1.37.06,2.04-.04,1.99-.32,4.41-1.18,7.03-.45,1.36-.98,2.56-1.52,3.57-1.26,3.22-3,8.86-2.75,16.01.28,8.09,2.96,14.18,4.64,17.33.2.57,2.08,5.98-.73,9.65-2.67,3.47-8.89,4.53-14.57,1.4h-.01Z"/>
      <path class="cls-20" d="M363.98,860.78v27.39c0,5.8-9.59,10.5-21.48,10.56-11.89-.06-21.48-4.75-21.48-10.56v-46.12c0,.18.01.37.02.54.04.35.12.71.22,1.06.54,1.75,1.98,3.36,4.07,4.72l.64.39c3.28,1.93,7.94,3.29,13.25,3.7.34.04.7.06,1.04.07.38.02.75.04,1.13.05.29.01.58.02.87.02h.47c.29,0,.58-.01.87-.02.38-.01.75-.02,1.13-.05.34-.01.7-.04,1.04-.07,5.31-.41,9.97-1.77,13.25-3.7l.64-.39c2.09-1.36,3.53-2.97,4.07-4.72.11-.35.19-.71.22-1.06.01-.18.02-.37.02-.54v18.73Z"/>
      <path class="cls-20" d="M363.98,842.05c0,.18-.01.37-.02.54-.05.37-.12.72-.22,1.06-.54,1.75-1.98,3.36-4.07,4.72l-.64.39c-3.28,1.93-7.94,3.29-13.25,3.7-.34.04-.7.06-1.04.07-.38.02-.75.04-1.13.05-.29.01-.58.02-.87.02h-.47c-.29,0-.58-.01-.87-.02-.38-.01-.75-.02-1.13-.05-.34-.01-.7-.04-1.04-.07-5.31-.41-9.97-1.77-13.25-3.7l-.64-.39c-2.09-1.36-3.53-2.97-4.07-4.72-.11-.34-.18-.7-.22-1.06-.01-.18-.02-.37-.02-.54,0-2.61,1.93-4.99,5.15-6.83l2.55,1.32v5.51c0,.24.02.46.07.7.02.12.06.24.09.34.01.06.04.11.05.15.02.06.05.12.07.17.04.12.09.22.15.33.05.11.11.21.18.32s.14.21.22.32c.12.17.26.33.41.5.24.25.5.5.79.73.21.17.45.33.68.5.17.11.33.21.51.32.04.01.06.04.09.05.09.06.21.12.32.18.19.11.39.2.59.29s.4.19.61.27c.14.06.29.12.44.18.29.12.59.22.9.32.19.06.38.13.58.18.08.02.18.05.27.08.08.02.18.06.27.07.05.02.09.04.14.05.19.05.39.09.59.14.09.02.2.05.29.07.13.02.25.05.38.07.38.08.75.14,1.14.2.28.05.57.08.85.12.17.01.33.04.5.05.41.05.84.07,1.27.09s.86.05,1.31.05.87-.02,1.31-.05.86-.05,1.27-.09c.17-.01.33-.04.5-.05.28-.04.57-.07.85-.12.39-.06.77-.12,1.14-.2.13-.02.25-.05.38-.07.09-.02.2-.05.29-.07.2-.05.4-.09.59-.14.05-.01.09-.02.14-.05.19-.04.37-.09.54-.15.2-.05.39-.12.58-.18.31-.09.6-.2.9-.32.14-.06.29-.12.44-.18.21-.08.41-.18.61-.27s.4-.19.59-.29c.11-.06.22-.12.32-.18.04-.01.06-.04.09-.05.18-.11.34-.21.51-.32.24-.17.47-.33.68-.5.29-.24.55-.48.79-.73.15-.17.29-.33.41-.5.08-.11.15-.21.22-.32s.13-.21.18-.32c.06-.11.12-.21.15-.33.02-.05.05-.11.07-.17.01-.05.04-.09.05-.15.04-.11.07-.22.09-.34.05-.24.07-.46.07-.7v-5.47l2.58-1.33c3.2,1.84,5.12,4.21,5.12,6.81Z"/>
      <path class="cls-5" d="M359.4,1017.21v28.43c0,1.96-1.59,3.54-3.54,3.54h-3.42c-1.96,0-3.54-1.58-3.54-3.54v-28.43c0-1.96,1.58-3.54,3.54-3.54h3.42c1.95,0,3.54,1.58,3.54,3.54Z"/>
      <path class="cls-20" d="M356.28,836.58v5.47c0,.24-.02.46-.07.7-.02.12-.06.24-.09.34-.01.06-.04.11-.05.15-.02.06-.05.12-.07.17-.04.12-.09.22-.15.33-.05.11-.11.21-.18.32s-.14.21-.22.32c-.13.18-.26.33-.41.5-.24.25-.5.5-.79.73-.21.17-.45.33-.68.5-.17.11-.33.21-.51.32-.04.01-.06.04-.09.05-.09.06-.21.12-.32.18-.19.11-.39.2-.59.29s-.4.19-.61.27c-.14.06-.29.12-.44.18-.29.12-.59.22-.9.32-.19.06-.38.13-.58.18-.18.06-.35.12-.54.15-.19.06-.38.11-.57.14-.06.02-.12.04-.17.05l-.67.14c-.38.08-.75.14-1.14.2-.28.05-.57.08-.85.12-.17.01-.33.04-.5.05-.41.05-.84.07-1.27.09s-.86.05-1.31.05-.87-.02-1.31-.05-.86-.05-1.27-.09c-.17-.01-.33-.04-.5-.05-.28-.04-.57-.07-.85-.12-.39-.06-.77-.12-1.14-.2l-.67-.14s-.11-.02-.17-.05c-.19-.04-.38-.08-.57-.14-.09-.01-.19-.05-.27-.07-.09-.04-.19-.06-.27-.08-.2-.05-.39-.12-.58-.18-.31-.09-.6-.2-.9-.32-.14-.06-.29-.12-.44-.18-.21-.08-.41-.18-.61-.27s-.4-.19-.59-.29c-.11-.06-.22-.12-.32-.18-.04-.01-.06-.04-.09-.05-.18-.11-.34-.21-.51-.32-.24-.17-.47-.33-.68-.5-.29-.24-.55-.48-.79-.73-.15-.17-.28-.32-.41-.5-.08-.11-.15-.21-.22-.32s-.13-.21-.18-.32c-.06-.11-.12-.21-.15-.33-.02-.05-.05-.11-.07-.17-.01-.05-.04-.09-.05-.15-.04-.11-.07-.22-.09-.34-.05-.24-.07-.46-.07-.7v-5.51l.29.15c8.48,4.38,18.55,4.38,27.03,0l.22-.12Z"/>
      <path class="cls-20" d="M355.92,999.45v13.36c-.11.29-.22.58-.35.86h-3.13c-1.96,0-3.54,1.58-3.54,3.54v3.63c-1.62.84-3.4,1.37-5.26,1.51-.38.04-.77.05-1.14.05s-.77-.01-1.14-.05c-1.86-.14-3.64-.67-5.26-1.51v-3.63c0-1.96-1.58-3.54-3.54-3.54h-3.13c-.13-.28-.25-.57-.35-.86v-13.36c1.96,5.37,6.78,9.11,12.28,9.54.38.04.77.05,1.14.05s.77-.01,1.14-.05c5.5-.44,10.32-4.18,12.28-9.54Z"/>
      <path class="cls-20" d="M355.05,736.09c.29,4.08.17,10.66-2.84,17.65-.22.51-.45,1-.7,1.51-2.84,5.81-6.64,9.46-9.34,12.02-4.65,4.41-9.27,7.11-12.5,8.73-3.35,1.65-9.42,4.1-17.33,4.27-3.96.08-7.55-.42-10.65-1.2,2.84-.08,8.23-.7,13.34-4.29,11.7-8.24,10.45-24.12,10.37-25.01-.31-2.01-.61-4-.92-6-1.92-12.63-3.85-25.27-5.78-37.9-3.24-21.34-6.5-42.67-9.75-64.01-1.73-11.43-3.48-22.86-5.23-34.29-5.96-23.45-11.9-46.91-17.86-70.36-1.8-5.57-4.93-13.29-10.37-21.58-1.18-1.82-2.49-3.66-3.9-5.51-8.62-11.21-18.11-18.09-24.4-21.96-45.32-24.52-79.9-42.97-99.49-54.34-5.6-3.24-17.87-10.51-29.69-6.35-6.12,2.16-10.08,6.66-12.31,9.78,3.08-5.59,7.3-8.68,9.22-9.93,5.64-3.77,11.26-7.56,16.9-11.34,2.45-1.89,8.22-5.81,16.65-6.89,8.87-1.13,15.73,1.52,18.54,2.81,31.58,16.25,63.15,32.51,94.73,48.76,3.99,1.73,9.05,4.25,14.56,7.88,4.79,3.15,9.91,7.14,14.93,12.17,8.26,8.26,13.56,16.62,16.88,22.91,4.75,10.75,9.48,22.94,13.75,36.52,4.07,12.95,7.05,25.12,9.27,36.2,4.16,19.14,8.03,39.09,11.48,59.82,2.72,16.31,5.18,33.12,7.31,50.4,1.32,10.63,2.48,21.09,3.48,31.39.6,6.11,1.16,12.16,1.65,18.15Z"/>
      <path class="cls-20" d="M348.9,1020.84v17.04h-12.81v-17.04c1.62.84,3.4,1.37,5.26,1.51.38.04.77.05,1.14.05s.77-.01,1.14-.05c1.86-.14,3.64-.67,5.26-1.51Z"/>
      <path class="cls-5" d="M336.09,1020.84v24.79c0,1.96-1.58,3.54-3.54,3.54h-3.42c-1.95,0-3.54-1.58-3.54-3.54v-28.43c0-1.96,1.59-3.54,3.54-3.54h3.42c1.96,0,3.54,1.58,3.54,3.54v3.63Z"/>
      <path class="cls-20" d="M329.08,901.54v13.36c-2.42-1.25-4.82-2.5-7.24-3.75-42.78,14.63-85.54,29.24-128.32,43.87-.91.31-1.83.61-2.74.93-3.28,1.12-6.56,2.24-9.84,3.36-.11.04-.2.06-.31.08-3.27.93-6.51-.26-8.33-2.47-.58-.7-1.01-1.5-1.25-2.37-.15-.58-.24-1.17-.22-1.77v-13.22c0,.55.07,1.11.22,1.63.61,2.21,2.44,3.97,4.75,4.73,1.57.53,3.35.59,5.13.02,46.97-16.05,93.92-32.11,140.89-48.16,2.42,1.25,4.82,2.5,7.24,3.75Z"/>
      <path class="cls-20" d="M325.4,749.76c.08.88,1.33,16.76-10.37,25.01-5.11,3.6-10.5,4.21-13.34,4.29-5.28-1.31-9.2-3.4-11.31-4.66l-31.09-16.08-11.45-5.91-40.37-20.87-35.51-18.36-4.32-2.23c-5.38-2.85-16.42-9.65-24.89-22.94-9.75-15.3-10.43-30.31-10.38-36.36-3.74-34.78-8.43-70.95-14.27-108.35-4.73-30.25-9.92-59.49-15.45-87.68-.44-2.47-1.26-9.14,2.11-16.51.29-.64.6-1.25.92-1.83.01-.01.01-.02.02-.04,2.23-3.11,6.19-7.62,12.31-9.78,11.82-4.16,24.09,3.1,29.69,6.35,19.59,11.37,54.17,29.82,99.49,54.34,6.3,3.87,15.78,10.76,24.4,21.96,1.42,1.85,2.72,3.69,3.9,5.51,5.44,8.29,8.56,16.02,10.37,21.58,5.96,23.45,11.9,46.91,17.86,70.36,1.75,11.43,3.49,22.86,5.23,34.29,3.26,21.34,6.51,42.67,9.75,64.01,1.93,12.63,3.86,25.27,5.78,37.9.31,2.01.61,4,.92,6Z"/>
      <path class="cls-20" d="M314.19,876.4c-.25,1.55-.5,3.09-.73,4.64-3.35,1.25-6.71,2.51-10.06,3.76-11.41-5.25-22.82-10.5-34.23-15.73-3.07-1.42-6.12-2.83-9.19-4.23h-.01c-1.65-1.49-3.6-2.64-5.74-3.39-1.05-.37-2.16-.63-3.29-.77h-.01c-2.56-1.18-5.11-2.36-7.67-3.54-.64-.29-1.27-.58-1.91-.87-.57-.27-1.14-.53-1.71-.79-.65-.46-1.62-1.3-2.03-2.61-.14-.44-.2-.87-.2-1.3v-13.36c0,.42.06.86.2,1.3.41,1.31,1.38,2.15,2.03,2.61,1.55.71,3.08,1.42,4.62,2.12,23.31,10.72,46.63,21.44,69.93,32.17Z"/>
      <path class="cls-20" d="M283.49,793.59c3.93,1.99,7.84,4,11.77,5.99-2.98,2.7-6.76,5.7-11.39,8.54-1.67,1.03-3.3,1.95-4.88,2.76-1.82.94-3.56,1.76-5.2,2.45-3.17,1.06-7.64,1.91-11.8.08-5.61-2.48-8.73-8.73-10.27-16.6h0c-.47-2.44-.8-5.01-1.01-7.69-.74-9.57-1.5-19.16-2.24-28.73-.21-2.67-.41-5.32-.63-7.99l11.45,5.91c.2,2.65.4,5.31.6,7.97.39,5.28.79,10.57,1.18,15.85.21,2.83.42,5.66.64,8.49.09,4.53,2.98,8.4,6.96,9.51,3.05.86,6.52-.92,8.78-2.06,2.84-1.45,4.84-3.23,6.05-4.49Z"/>
      <path class="cls-5" d="M269.17,869.06c.08.65.12,1.3.12,1.96,0,4.51-1.78,8.59-4.67,11.59.58-1.69.88-3.49.88-5.37,0-4.93-2.13-9.35-5.52-12.42,3.07,1.4,6.12,2.82,9.19,4.23Z"/>
      <path class="cls-5" d="M265.5,877.25c0,1.88-.31,3.68-.88,5.37-2.23,6.59-8.47,11.35-15.83,11.35-9.24,0-16.71-7.48-16.71-16.71,0-4.51,1.77-8.58,4.66-11.57,1.32-1.38,2.88-2.54,4.61-3.39,2.24-1.13,4.77-1.76,7.44-1.76.72,0,1.44.05,2.13.14h.01c1.13.14,2.24.4,3.29.77,2.15.74,4.09,1.9,5.74,3.39h.01c3.39,3.07,5.52,7.49,5.52,12.42Z"/>
      <path class="cls-20" d="M251.71,796.82c1.55,7.87,4.66,14.12,10.27,16.6-2.54-.98-25.35-9.81-38.15-17.74-2.69-1.66-6.33-4.13-8.95-8.58-2.34-3.97-2.93-7.73-3.09-9.81-.04-.38-.07-.74-.11-1.12-1.16-12.17-2.31-24.35-3.47-36.52h0c-.25-2.71-.51-5.4-.77-8.1l40.37,20.87c.21,2.67.41,5.32.63,7.99.74,9.58,1.5,19.17,2.24,28.73.21,2.68.54,5.25,1.01,7.68h0Z"/>
      <path class="cls-20" d="M243.26,857.14c2.56,1.18,5.11,2.36,7.67,3.54-.7-.09-1.42-.14-2.13-.14-2.68,0-5.2.63-7.44,1.76v-6.03c.64.29,1.27.58,1.91.87Z"/>
      <path class="cls-5" d="M241.35,858.62v3.67c-1.73.85-3.29,2.01-4.61,3.39.91-2.74,2.52-5.15,4.61-7.05Z"/>
      <path class="cls-20" d="M208.22,739.65c1.16,12.17,2.31,24.35,3.47,36.52l-37.73-19.47c-2.01-1.03-3.05-2.9-3.18-4.85v-34.74c.13,1.93,1.18,3.82,3.18,4.85l23.51,12.14,10.76,5.56Z"/>
      <path class="cls-20" d="M207.46,731.54c.26,2.7.52,5.39.77,8.09l-10.76-5.54-23.51-12.14c-2.01-1.03-3.05-2.91-3.18-4.85v-.78c.07-1.12.46-2.22,1.17-3.15l35.51,18.36Z"/>
      <path class="cls-5" d="M198.12,964.99c2.89,3,4.67,7.09,4.67,11.58,0,9.22-7.49,16.71-16.71,16.71-7.36,0-13.62-4.77-15.84-11.37h-.01c-.57-1.69-.87-3.48-.87-5.34,0-7.34,4.72-13.56,11.29-15.81,1.7-.59,3.54-.91,5.44-.91,2.68,0,5.2.63,7.44,1.75,1.72.86,3.28,2.01,4.6,3.39Z"/>
      <path class="cls-5" d="M193.52,957.96c2.09,1.89,3.68,4.29,4.6,7.03-1.32-1.38-2.88-2.52-4.6-3.39v-3.64Z"/>
      <path class="cls-20" d="M193.52,957.96v3.64c-2.24-1.12-4.77-1.75-7.44-1.75-1.9,0-3.74.32-5.44.91v-1.38c.11-.02.2-.05.31-.08,3.28-1.12,6.56-2.24,9.84-3.36.91-.32,1.83-.63,2.74-.93v2.95Z"/>
      <path class="cls-5" d="M180.64,959.39v1.38c-6.57,2.24-11.29,8.47-11.29,15.81,0,1.86.31,3.66.87,5.33-2.88-3-4.65-7.07-4.65-11.56,0-5.5,2.64-10.37,6.73-13.42,1.82,2.21,5.06,3.4,8.33,2.47Z"/>
    </g>
    <g>
      <path class="cls-15" d="M319.25,417.9l-.57-.04c-65.65-13.71-114.86-61.81-123.71-119.32-7.62-49.55,17.39-88.66,25.11-99.83,4.8-8.81,20.05-34.15,52.06-49.29,34.3-16.22,65.71-10.3,75.16-8.14,3.04-2.45,24.88-19.49,54.34-13.66,25.58,5.05,38.96,23.77,41.61,27.66,22.58,1.38,41.59,14.56,46.9,31.88,5.56,18.15-3.82,41.19-23.86,54.16"/>
      <path class="cls-15" d="M420.71,338.14c.05.61.07,1.3.06,2.04"/>
      <path class="cls-15" d="M471.21,261.12c.41,5.5.04,10.2-.48,13.74-.35.97-.72,2.01-1.07,3.1"/>
      <path class="cls-15" d="M420.77,340.18c.02,1.11.06,2.22.08,3.33.28,5.43,3.43,9.35,6.24,9.55,3.21.22,7.73-4.29,7.43-11.26-.14-12.3-.27-24.62-.41-36.93,2.71-1.82,12.1-8.61,15.62-21.47,4.77-17.36-5.14-31.28-6.46-33.07,8.73-1.57,16.45-4.74,23.04-9,1.25,2.88,2.59,6.58,3.59,10.98"/>
      <path class="cls-15" d="M318.23,434.8c.34-5.64.68-11.26,1.03-16.9,7.28.53,18.31.34,30.67-3.94,24.23-8.39,36.92-26.69,41-33.19"/>
      <path class="cls-15" d="M468.51,339.77c.17.59.33,1.16.51,1.71.75,4.59,5.47,36.42-17.09,62.88-26.76,31.39-67.35,26.42-70.11,26.03v18.77"/>
      <path class="cls-15" d="M410.64,467.51c1.12,1.09,2.23,2.17,3.35,3.26"/>
      <path class="cls-15" d="M276.29,468.53c1.92-5.69,6.13-14.74,15.22-22.35,10.26-8.6,21.23-10.77,26.72-11.37-.33,5.47-.67,10.93-1,16.41,4.21,5.05,8.59,8,12.03,9.77,23.24,11.92,50.35-5.76,52.56-7.24v-4.58c5.21,2.17,11.39,5.26,17.89,9.71,1.05.72,2.06,1.44,3.04,2.16"/>
      <path class="cls-15" d="M443.89,583.79c-.42.25-.85.48-1.27.71-3.42,1.83-6.52,3.16-9.06,4.12,1.05,7.3,2.08,14.65,3.08,22.03.26,1.91.52,3.82.77,5.73"/>
      <path class="cls-15" d="M431.55,487.85c16.34,15.88,32.67,31.76,49.01,47.64-.5,2.06-1.27,4.85-2.48,8.1"/>
      <path class="cls-15" d="M376.28,479.12c-2.12,2.44-9,10.97-9.52,23.91-.57,13.94,6.63,23.48,8.54,25.87,18.6,20.2,37.2,40.41,55.8,60.6.74-.25,1.56-.54,2.45-.88"/>
      <path class="cls-15" d="M353.4,717.93c.14.04.28.07.42.09,11.88-1.36,32.01-5.23,53.44-17.81,4.95-2.91,9.45-5.98,13.51-9.07,4.05-3.08,7.64-6.19,10.84-9.21,5.1-4.8,9.15-9.37,12.27-13.2-.44-3.82-.88-7.65-1.33-11.49"/>
      <path class="cls-15" d="M499.6,787.9c-1.34-7.73-2.7-15.45-4.05-23.18"/>
      <path class="cls-15" d="M568.85,825.89c-1.93,1.96-4.78,4.48-8.52,6.85"/>
      <path class="cls-15" d="M481.86,646.89c4.18-1.1,8.35-2.19,12.53-3.29,2.24-.55,26.8-6.09,45.88,10.98,14.57,13.01,16.1,30.4,16.35,34.16,4.97,44.74,9.93,89.48,14.89,134.22-.2.25-.48.58-.83.98"/>
      <path class="cls-15" d="M518.43,718.76c-3.57,1.31-7.21,2.62-10.9,3.92"/>
      <path class="cls-15" d="M481.86,646.89h0c-13.1,3.46-26.21,6.9-39.31,10.36-1.6-13.51-3.31-27.13-5.14-40.87,6.73.08,15.36,1.52,24.04,6.64,12,7.07,17.8,17.43,20.42,23.87Z"/>
      <path class="cls-15" d="M488.98,768.11c.55,11.96.93,20.16,1,21.71"/>
      <path class="cls-15" d="M439.77,801.89c-3.54-1.51-6.22-3.17-7.88-4.33"/>
      <path class="cls-15" d="M489.77,790.36c-1.19,1.38-4.2,4.66-8.94,7.8"/>
      <path class="cls-15" d="M627.52,852.17c.08.85.11,1.49.12,1.86-.17,3.77-.33,7.54-.48,11.31-2.16,2.3-5.21,5.12-9.32,7.73-3.6,2.28-6.98,3.75-9.72,4.72-20.45,6.04-40.89,12.09-61.33,18.14-3.72.79-9.28,1.55-15.95.81-6.36-.7-11.41-2.49-14.8-3.99-1.33-1.03-3.97-3.33-5.7-7.24-1.6-3.63-1.64-6.89-1.55-8.54.02-.64.06-1.29.08-1.92"/>
      <path class="cls-15" d="M541.91,886.1c-3.93.66-11.94,1.33-20.74-2.43-5.86-2.5-9.9-6.05-12.3-8.61.24-5.41.48-10.82.72-16.23"/>
      <path class="cls-15" d="M593.65,824.14c.39-.04.78-.05,1.16-.07.24-.02.63-.04,1.14-.05"/>
      <path class="cls-15" d="M584.89,825.06c.51-.07,1-.14,1.49-.2"/>
      <path class="cls-15" d="M576.63,826.65c.29-.07.59-.14.9-.21"/>
      <path class="cls-15" d="M560.66,837.03c3.22-3.31,4.98-6.48,5.41-7.29,1.06-.38,2.16-.74,3.3-1.1"/>
      <path class="cls-15" d="M605.75,867.29h-.01c-.06.04-.13.06-.19.08-22,8.96-43.17,14.8-62.73,18.57-.27.05-.58.11-.92.15-.07-16.84-9.57-29.19-19.95-30.51-4.89-.61-9.31,1.31-12.37,3.24.15-3.63.32-7.28.48-10.91"/>
      <path class="cls-15" d="M627.52,852.17c-.84,1.8-2.26,4.2-4.64,6.42-1.97,1.84-3.95,2.97-5.44,3.67-3.8,1.72-7.69,3.4-11.69,5.04,1.23-5.7,2.68-16.84-1.91-29.26-2.23-6.03-5.27-10.69-7.89-14.01,3.68-.05,13.79.57,22.16,8.59,7.34,7.02,9,15.58,9.4,19.57Z"/>
      <path class="cls-15" d="M593.65,824.14c1.51,1.52,3.76,4.18,5.43,8.06,1.62,3.76,1.99,7.12,2.08,9.24-.2,1.42-1.14,2.59-2.44,3.01-1.57.51-3.37-.2-4.27-1.75-.26-2.13-.9-5.2-2.48-8.59-1.76-3.73-3.97-6.33-5.56-7.94-.01-.11-.09-.65-.04-1.31.06-.73.28-1.62.97-2.21,1.4-1.23,4.36-.93,6.3,1.47h.01Z"/>
      <path class="cls-15" d="M584.89,825.06c1.51,1.53,3.72,4.16,5.37,7.99,1.6,3.76,1.99,7.12,2.08,9.24-.2,1.42-1.16,2.59-2.44,3.01-1.57.5-3.37-.21-4.27-1.75-.27-2.15-.9-5.21-2.49-8.59-1.75-3.73-3.96-6.35-5.56-7.95-.01-.06-.04-.27-.05-.57-.04-.78.05-2.12.98-2.94,1.4-1.24,4.36-.93,6.3,1.47.02.02.05.06.08.08Z"/>
      <path class="cls-15" d="M570.68,823.94c1.53-.5,3.75.08,5.3,2.02.21.21.44.44.66.7,1.47,1.58,3.36,4.02,4.79,7.37,1.62,3.76,1.99,7.12,2.08,9.24-.2,1.42-1.16,2.59-2.44,3.01-1.57.5-3.37-.21-4.27-1.75-.27-2.15-.9-5.21-2.48-8.59-1.53-3.26-3.42-5.66-4.93-7.29-.22-.24-.44-.46-.64-.66-.02-.14-.17-1.12.11-2.09"/>
      <path class="cls-15" d="M570.68,823.94c-.47.54-1.09,1.2-1.83,1.96.14-.52.39-1.03.84-1.42.28-.24.61-.42.99-.54Z"/>
      <path class="cls-15" d="M516.44,835.79c.88.39,1.82.78,2.81,1.16"/>
      <path class="cls-15" d="M519.35,839.4c-2.9-1.06-4.06-.81-4.06-.81-.81.17-4.84.47-5.13,7.08-.04.75-.07,1.5-.09,2.25-14.12,4.19-28.25,8.36-42.38,12.54-3.72.8-9.27,1.55-15.94.81-2.43-.27-4.66-.7-6.69-1.19"/>
      <path class="cls-15" d="M430.07,833.47c.15-3.36.31-6.72.45-10.1"/>
      <path class="cls-15" d="M462.83,850.63c-1.92.32-4.8.65-8.28.46-.27-.01-.55-.04-.84-.06-.47-.04-.96-.08-1.45-.14-.48-.05-.99-.12-1.5-.2-.52-.08-1.04-.18-1.57-.28s-1.06-.22-1.6-.37"/>
      <path class="cls-15" d="M503.43,809.84c1.19,6.78,2.38,13.58,3.56,20.36,1.12.86,4.43,3.34,9.45,5.59-18.4,6.82-36.13,11.5-52.69,14.67-.27.06-.58.11-.92.17-.06-16.84-9.58-29.2-19.95-30.51-4.89-.63-9.31,1.31-12.37,3.26.19-4.4.39-8.79.58-13.19.29-6.59,4.32-6.9,5.12-7.08,0,0,1.03-.21,3.6.66"/>
      <path class="cls-15" d="M481.29,801.82c3.41-3.42,5.26-6.72,5.71-7.56,1.05-.37,2.15-.73,3.29-1.1"/>
      <path class="cls-15" d="M500.67,794h0c.11.63.21,1.23.32,1.83"/>
      <path class="cls-15" d="M497.56,791.17c.29-.07.59-.14.9-.2"/>
      <path class="cls-15" d="M500.67,794c-.78-.99-1.53-1.82-2.17-2.47-.01-.06-.04-.27-.05-.57-.05-.77.05-2.12.98-2.95.05-.05.11-.09.17-.12.17.91.33,1.82.48,2.71.2,1.13.39,2.26.59,3.39Z"/>
      <path class="cls-15" d="M503.43,809.84c-.39.44-.88.77-1.45.94-1.57.51-3.37-.2-4.27-1.75-.27-2.13-.9-5.2-2.49-8.58-1.53-3.27-3.42-5.67-4.93-7.3-.22-.24-.42-.45-.63-.65-.02-.15-.18-1.17.11-2.16h.01c.05-.19.11-.35.2-.52t0-.01c.14-.31.34-.59.61-.83,1.4-1.23,4.36-.93,6.3,1.47.21.21.44.44.66.7,1.04,1.12,2.28,2.67,3.43,4.66.81,4.67,1.64,9.34,2.44,14.01Z"/>
      <path class="cls-15" d="M560.66,837.03c-3.27,3.36-8.03,6.89-14.45,8.3-9.4,2.08-17.63-1.4-19.56-2.32h-.01c-.27-.12-.41-.2-.41-.2,0,0-.01,0-.02-.01-.14-.08-.25-.14-.26-.15-2.81-1.66-4.98-2.67-6.59-3.24l-.11-2.45c4.26,1.6,9.44,2.88,15.32,3.01h.01c2.22.06,4.52-.05,6.92-.35,7.73-1,14-3.8,18.82-6.85l.33,4.28Z"/>
      <path class="cls-15" d="M481.29,801.82c-.05.06-.11.12-.17.18-3.26,3.23-7.88,6.51-14,7.87-10.73,2.37-19.93-2.5-19.97-2.52,0,0-.01-.01-.02-.01-.15-.08-.26-.15-.26-.15-3.09-1.83-5.39-2.84-7.05-3.41h-.01c-.01-.63-.02-1.25-.04-1.88,5.38,2.3,12.73,4.22,21.43,3.34,8.26-.84,14.83-3.89,19.63-7.08.15,1.23.31,2.44.46,3.67Z"/>
      <path class="cls-15" d="M420.77,340.18c-.04,1.99-.32,4.41-1.18,7.03-.45,1.36-.98,2.56-1.52,3.57-1.26,3.22-3,8.86-2.75,16.01.28,8.09,2.96,14.18,4.64,17.33.2.57,2.08,5.98-.73,9.65-2.67,3.47-8.89,4.53-14.57,1.4h-.01c-.83-.46-1.65-1-2.44-1.65-2.04-1.66-4.34-3.79-6.65-6.46-1.9-2.22-3.42-4.36-4.64-6.29-.12-.15-.24-.32-.35-.48-.13-.17-.25-.33-.37-.5-.13-.18-.25-.35-.38-.54-.12-.18-.24-.35-.35-.54-.41-.64-.78-1.26-1.11-1.86-2.28-4.09-4.93-10.84-3.95-19.18,1.78-15.13,14.05-22.74,15.55-23.63.06-.17.13-.35.2-.54.09-.22.19-.46.31-.71h.01c.05-.12.12-.26.21-.42.15-.29.32-.6.52-.92h0c.35-.59.9-1.36,1.66-2.18.75-.8,1.69-1.58,2.82-2.24,1.32-.77,5.19-3.02,9.33-1.29,4.35,1.83,5.45,6.57,5.56,7.08.05,1.78.09,3.56.14,5.33.01.68.04,1.37.06,2.04Z"/>
      <path class="cls-15" d="M397.75,377.48c.2,2.23.68,5.08,1.79,8.26,1.46,4.15,3.47,7.3,5.11,9.44"/>
      <path class="cls-15" d="M404.94,395.55c-.09-.12-.2-.25-.28-.38"/>
      <path class="cls-15" d="M471.93,332.2c-1.1,2.89-2.28,5.41-3.42,7.57-2.04-6.98-3.92-16.19-4.13-27.09-.28-14.45,2.51-26.4,5.27-34.71.99,2.11,2.18,4.94,3.29,8.37"/>
      <path class="cls-15" d="M472.94,286.34c2.47,7.58,4.48,18.09,2.9,30.33-.77,5.93-2.24,11.15-3.92,15.53-1.84-4.81-3.85-11.85-4.01-20.49-.22-11.08,2.65-19.91,5.02-25.37Z"/>
      <path class="cls-15" d="M614.02,520.18h.02c.94-.24,1.88-.45,2.77-.64,6-1.3,23.02-2.95,30.58,6.76,1.63,2.09,2.44,4.25,2.88,5.8,3.03,1.72,5.38,3.55,7.04,5.01,1.21,1.1,1.7,2.77,1.24,4.29-.61,2.09-2.67,2.74-2.87,2.81,3.07,2.76,4.88,5.45,5.67,6.71.77,2.41.04,4.94-1.7,6.27-2.23,1.7-5.87,1.26-7.97-1.36,1.21,1.55,1.97,2.93,2.37,3.72,1.36,2.26,1.21,5.01-.24,6.71-1.91,2.24-5.96,2.5-8.62-.07-.96-.84-1.9-1.67-2.84-2.5-1.57-1.39-3.61-2.13-5.71-2.04-3.21.14-7.49.78-12.11,2.78-4.13,1.79-7.22,4.12-9.37,6.06-1.42,1.3-3.13,2.24-4.95,2.82-2.54.81-5.07,1.64-7.62,2.45-3.21,1.03-6.59,1.38-9.96,1.03-1.39-.15-2.78-.29-4.19-.44-30.95,9.72-61.9,19.44-92.85,29.16-3.48,1.04-10.73,2.68-19.6.81-9.88-2.08-16.29-7.37-18.95-9.85-4.39-4.23-8.78-8.47-13.16-12.7,5.66-3.17,12.05-7.7,18.13-14.13,8.47-8.99,13.22-18.44,15.92-25.68l.14-.39c3.56,3.24,7.14,6.48,10.7,9.71,28.66-5.14,57.32-10.3,85.99-15.44,2.94-2.05,6.27-4.18,10.04-6.26h.01"/>
      <path class="cls-15" d="M655.69,544.22h-.01c-2.49-2.24-5.8-4.53-10.05-6.12-9.06-3.4-16.91-1.63-19.58-.9"/>
      <path class="cls-15" d="M651.7,555.85c-.06-.07-.12-.14-.18-.22-1.56-1.93-3.81-4.12-6.97-5.81-6.82-3.67-13.32-2.64-15.2-2.28"/>
      <path class="cls-15" d="M614.02,520.18c-6.49,1.57-14.14,4.01-22.33,7.88-2.43,1.14-4.72,2.32-6.88,3.53,2.15-2.31,5.96-5.83,11.67-8.39,7.45-3.33,14.17-3.28,17.54-3.02Z"/>
      <path class="cls-15" d="M499.81,437.08c4.94-.65,8.67,1.88,9.07,4.53.35,2.34-1.95,4.46-2.34,4.8-.88.83-2.19,1.85-3.92,2.75-1.82.93-3.48,1.4-4.71,1.65-3.87,1.05-8.09,2.39-12.56,4.14-5.07,1.98-9.57,4.13-13.48,6.23-.21.13-2.84,1.77-3,5-.14,3.22,2.3,5.11,2.5,5.25,3.47,1.01,6.94,2.03,10.39,3.05,4.59,1.92,6.25,6.98,4.48,10.25-1.31,2.39-4.45,3.77-7.73,3.24-3.63-.59-7.27-1.19-10.91-1.78-3.95.21-9.04.11-14.8-.98-4.42-.83-8.22-2.04-11.3-3.26-3.33,1.96-6.65,3.93-9.97,5.89-5.85-5.7-11.71-11.38-17.56-17.08,0-.02-.01-.05-.01-.07-1.03-1.03-2.15-2.1-3.34-3.18l-.07-.07c-2.29-2.09-4.89-4.26-7.82-6.42,2.63-1.34,5.26-2.69,7.89-4.03,3.49-1.79,6.98-3.57,10.46-5.37,1.69-3.61,4.74-8.87,10.13-13.68,2.63-2.36,5.25-4.09,7.51-5.35,0,0,2.95-2.65,10.08-6.51,3.68-1.98,7.15-3.47,10.21-4.59,4.18-1.53,6.53-.15,7.44.24,1.5.65,2.58,1.6,3.31,2.41,2.45-.67,4.69-1.11,6.64-1.39,3.17-.45,4.51,1.18,5.17,1.84,1.53,1.55,1.8,3.61,1.82,4.79,2.72-.31,5.08-.32,6.94-.24,5.78.25,7.49,3.09,7.93,3.7,1.07,1.46,1.42,3.07,1.52,4.25Z"/>
      <path class="cls-15" d="M471.82,446.18c3.88-2.11,8.79-4.35,14.64-6.17,4.67-1.44,8.98-2.3,12.69-2.82.22-.05.45-.07.66-.11"/>
      <path class="cls-15" d="M499.85,437.75c0-.2-.01-.42-.04-.67"/>
      <path class="cls-15" d="M461.87,437.75c2.74-2.01,6.84-4.53,12.27-6.35,3.36-1.12,6.52-1.73,9.29-2.04"/>
      <path class="cls-15" d="M483.43,429.37c0,.33-.01.6-.02.75"/>
      <path class="cls-15" d="M452.25,432.59c2.91-2.12,6.97-4.64,12.17-6.68,1.88-.73,3.68-1.31,5.38-1.78"/>
      <path class="cls-15" d="M470.42,424.87c-.17-.22-.38-.47-.61-.74"/>
      <path class="cls-15" d="M471.21,261.12c-1.33.86-2.81,1.97-4.32,3.36-1.33,1.25-2.43,2.48-3.31,3.6-.86,1.18-2.09,1.95-3.04,1.71-1.32-.32-2.48-2.64-1.53-5.43.99-1.85,2.42-4.1,4.46-6.4,2.25-2.55,4.54-4.38,6.43-5.65.32,1.42.6,2.91.84,4.48.21,1.49.38,2.94.48,4.33Z"/>
      <path class="cls-15" d="M105.69,437.23c3.08-5.59,7.3-8.68,9.22-9.93,5.64-3.77,11.26-7.56,16.9-11.34,2.45-1.89,8.22-5.81,16.65-6.89,8.87-1.13,15.73,1.52,18.54,2.81,31.58,16.25,63.15,32.51,94.73,48.76,3.99,1.73,9.05,4.25,14.56,7.88,4.79,3.15,9.91,7.14,14.93,12.17,8.26,8.26,13.56,16.62,16.88,22.91,4.75,10.75,9.48,22.94,13.75,36.52,4.07,12.95,7.05,25.12,9.27,36.2,4.16,19.14,8.03,39.09,11.48,59.82,2.72,16.31,5.18,33.12,7.31,50.4,1.32,10.63,2.48,21.09,3.48,31.39.6,6.11,1.16,12.16,1.65,18.15.29,4.08.17,10.66-2.84,17.65"/>
      <path class="cls-15" d="M171.94,713.18l-4.32-2.23c-5.38-2.85-16.42-9.65-24.89-22.94-9.75-15.3-10.43-30.31-10.38-36.36-3.74-34.78-8.43-70.95-14.27-108.35-4.73-30.25-9.92-59.49-15.45-87.68-.44-2.47-1.26-9.14,2.11-16.51.29-.64.6-1.25.92-1.83.01-.01.01-.02.02-.04,2.23-3.11,6.19-7.62,12.31-9.78,11.82-4.16,24.09,3.1,29.69,6.35,19.59,11.37,54.17,29.82,99.49,54.34,6.3,3.87,15.78,10.76,24.4,21.96,1.42,1.85,2.72,3.69,3.9,5.51,5.44,8.29,8.56,16.02,10.37,21.58,5.96,23.45,11.9,46.91,17.86,70.36,1.75,11.43,3.49,22.86,5.23,34.29,3.26,21.34,6.51,42.67,9.75,64.01,1.93,12.63,3.86,25.27,5.78,37.9.31,2.01.61,4,.92,6,.08.88,1.33,16.76-10.37,25.01-5.11,3.6-10.5,4.21-13.34,4.29"/>
      <path class="cls-15" d="M170.78,717.11v-.78c.07-1.12.46-2.22,1.17-3.15l35.51,18.36"/>
      <path class="cls-15" d="M259.29,758.32l31.09,16.08c2.11,1.26,6.03,3.35,11.31,4.66,3.1.78,6.69,1.29,10.65,1.2,7.9-.17,13.98-2.62,17.33-4.27,3.23-1.62,7.86-4.32,12.5-8.73,2.7-2.56,6.5-6.2,9.34-12.02.25-.51.47-1,.7-1.51,16.94,3.46,30.63,2.16,33.18,1.88,13.01-2.49,26.53-5.39,40.5-8.76,5.92-1.44,11.91-2.96,17.99-4.58,15.12-4.01,29.57-8.29,43.34-12.75.7-.22,1.38-.45,2.06-.67,6.23-2.03,12.31-4.08,18.26-6.17,2.24,2.43,3.99,5.3,5.14,8.4"/>
      <path class="cls-15" d="M481.56,737.21c-1.9.87-3.57,1.76-5.01,2.58"/>
      <path class="cls-15" d="M485.11,735.7c-.26.09-.5.19-.74.29"/>
      <path class="cls-15" d="M211.69,776.17l-37.73-19.47c-2.01-1.03-3.05-2.9-3.18-4.85v-34.74c.13,1.93,1.18,3.82,3.18,4.85l23.51,12.14"/>
      <polyline class="cls-15" points="208.22 739.65 197.47 734.09 208.22 739.64"/>
      <path class="cls-15" d="M261.99,813.41c-2.54-.98-25.35-9.81-38.15-17.74-2.69-1.66-6.33-4.13-8.95-8.58-2.34-3.97-2.93-7.73-3.09-9.81-.04-.38-.07-.74-.11-1.12-1.16-12.17-2.31-24.35-3.47-36.52h0c-.25-2.71-.51-5.4-.77-8.1l40.37,20.87"/>
      <path class="cls-15" d="M278.98,810.88c-1.82.94-3.56,1.76-5.2,2.45-3.17,1.06-7.64,1.91-11.8.08-5.61-2.48-8.73-8.73-10.27-16.6h0c-.47-2.44-.8-5.01-1.01-7.69-.74-9.57-1.5-19.16-2.24-28.73-.21-2.67-.41-5.32-.63-7.99l11.45,5.91c.2,2.65.4,5.31.6,7.97"/>
      <path class="cls-15" d="M326.18,835.22l-47.19-24.35c1.58-.81,3.21-1.73,4.88-2.76,4.64-2.84,8.41-5.84,11.39-8.54-3.93-1.99-7.84-4-11.77-5.99-1.21,1.26-3.21,3.04-6.05,4.49-2.25,1.14-5.72,2.93-8.78,2.06-3.97-1.11-6.86-4.98-6.96-9.51-.21-2.83-.42-5.66-.64-8.49-.39-5.28-.79-10.57-1.18-15.85l69.13,35.67c8.48,4.38,18.55,4.38,27.03,0l71.51-36.89,48.93-25.24s.04-.02.06-.04l5.01-2.58c.88-.41,1.83-.81,2.81-1.21.25-.11.5-.2.74-.29.75-.31,1.53-.59,2.34-.87.34-.13.7-.25,1.05-.37.54-.18,1.1-.35,1.66-.53.91-.28,1.85-.54,2.82-.79.46-.12.92-.24,1.39-.34.52-.13,1.06-.25,1.6-.37,6.55-1.37,12.29-1.56,16.7-1.36,1,2.69,1.55,5.59,1.56,8.56.06,10.27-6.18,19.62-15.71,23.55-.02.01-.06.02-.08.04l-2.89,1.49h0s-6.57,3.4-6.57,3.4l-57.09,29.45-73.04,37.69"/>
      <line class="cls-15" x1="348.9" y1="1037.89" x2="336.09" y2="1037.89"/>
      <path class="cls-15" d="M356.28,836.58l2.58-1.33c3.2,1.84,5.12,4.21,5.12,6.81"/>
      <path class="cls-15" d="M355.03,844.87c.15-.17.29-.33.41-.5"/>
      <path class="cls-15" d="M329.56,844.38c.12.17.26.33.41.5"/>
      <path class="cls-15" d="M321.02,842.05c0-2.61,1.93-4.99,5.15-6.83l2.55,1.32"/>
      <path class="cls-15" d="M321.27,843.66c-.11-.34-.18-.7-.22-1.06"/>
      <path class="cls-15" d="M363.95,842.6c-.05.37-.12.72-.22,1.06"/>
      <path class="cls-15" d="M336.17,848.08c.14.04.28.07.42.09"/>
      <path class="cls-15" d="M336.02,848.03c-.09-.01-.19-.05-.27-.07-.09-.04-.19-.06-.27-.08-.2-.05-.39-.12-.58-.18-.31-.09-.6-.2-.9-.32-.14-.06-.29-.12-.44-.18-.21-.08-.41-.18-.61-.27s-.4-.19-.59-.29c-.11-.06-.22-.12-.32-.18-.04-.01-.06-.04-.09-.05-.18-.11-.34-.21-.51-.32-.24-.17-.47-.33-.68-.5-.29-.24-.55-.48-.79-.73-.15-.17-.28-.32-.41-.5-.08-.11-.15-.21-.22-.32s-.13-.21-.18-.32c-.06-.11-.12-.21-.15-.33-.02-.05-.05-.11-.07-.17-.01-.05-.04-.09-.05-.15-.04-.11-.07-.22-.09-.34-.05-.24-.07-.46-.07-.7v-5.51l.29.15c8.48,4.38,18.55,4.38,27.03,0l.22-.12v5.47c0,.24-.02.46-.07.7-.02.12-.06.24-.09.34-.01.06-.04.11-.05.15-.02.06-.05.12-.07.17-.04.12-.09.22-.15.33-.05.11-.11.21-.18.32s-.14.21-.22.32c-.13.18-.26.33-.41.5-.24.25-.5.5-.79.73-.21.17-.45.33-.68.5-.17.11-.33.21-.51.32-.04.01-.06.04-.09.05-.09.06-.21.12-.32.18-.19.11-.39.2-.59.29s-.4.19-.61.27c-.14.06-.29.12-.44.18-.29.12-.59.22-.9.32-.19.06-.38.13-.58.18-.18.06-.35.12-.54.15"/>
      <path class="cls-15" d="M347.57,848.36c-.38.08-.75.14-1.14.2-.28.05-.57.08-.85.12-.17.01-.33.04-.5.05-.41.05-.84.07-1.27.09s-.86.05-1.31.05-.87-.02-1.31-.05-.86-.05-1.27-.09c-.17-.01-.33-.04-.5-.05-.28-.04-.57-.07-.85-.12-.39-.06-.77-.12-1.14-.2"/>
      <path class="cls-15" d="M336.76,848.22c-.2-.05-.4-.09-.59-.14-.05-.01-.09-.02-.14-.05.19.06.38.11.57.14.06.02.12.04.17.05Z"/>
      <path class="cls-15" d="M337.43,848.36c-.13-.02-.25-.05-.38-.07-.09-.02-.2-.05-.29-.07l.67.14Z"/>
      <path class="cls-15" d="M321.02,860.78v-18.73c0,.18.01.37.02.54.04.35.12.71.22,1.06.54,1.75,1.98,3.36,4.07,4.72l.64.39c3.28,1.93,7.94,3.29,13.25,3.7.34.04.7.06,1.04.07.38.02.75.04,1.13.05.29.01.58.02.87.02h.47c.29,0,.58-.01.87-.02.38-.01.75-.02,1.13-.05.34-.01.7-.04,1.04-.07,5.31-.41,9.97-1.77,13.25-3.7l.64-.39c2.09-1.36,3.53-2.97,4.07-4.72.11-.35.19-.71.22-1.06.01-.18.02-.37.02-.54v18.73"/>
      <path class="cls-15" d="M381.6,884.8c42.93,16.08,85.87,32.14,128.8,48.22,2.42,1.51,3.79,4.07,3.76,6.55"/>
      <path class="cls-15" d="M237.41,838.21c0-2.45,1.99-4.79,3.57-5.94,3.72-2.7,8.28-1.11,8.78-.93,23.76,9.81,47.51,19.63,71.27,29.45v27.39c0,5.8,9.59,10.5,21.48,10.56,11.89-.06,21.48-4.75,21.48-10.56v-27.39c22.03-9.11,44.05-18.21,66.09-27.32,1.72-.71,3.46-1.43,5.18-2.13.5-.18,5.06-1.77,8.78.93,1.58,1.16,3.57,3.49,3.57,5.94"/>
      <path class="cls-15" d="M170.83,939.56c-.02-2.48,1.34-5.04,3.76-6.55,42.93-16.08,85.87-32.14,128.8-48.22"/>
      <line class="cls-15" x1="329.08" y1="999.45" x2="329.08" y2="914.9"/>
      <line class="cls-15" x1="355.92" y1="914.9" x2="355.92" y2="999.45"/>
      <path class="cls-15" d="M241.35,856.27c-.57-.27-1.14-.53-1.71-.79-.65-.46-1.62-1.3-2.03-2.61-.14-.44-.2-.87-.2-1.3v-13.36c0,.42.06.86.2,1.3.41,1.31,1.38,2.15,2.03,2.61,1.55.71,3.08,1.42,4.62,2.12,23.31,10.72,46.63,21.44,69.93,32.17-.25,1.55-.5,3.09-.73,4.64-3.35,1.25-6.71,2.51-10.06,3.76-11.41-5.25-22.82-10.5-34.23-15.73"/>
      <path class="cls-15" d="M172.31,956.92c-.58-.7-1.01-1.5-1.25-2.37-.15-.58-.24-1.17-.22-1.77v-13.22c0,.55.07,1.11.22,1.63.61,2.21,2.44,3.97,4.75,4.73,1.57.53,3.35.59,5.13.02,46.97-16.05,93.92-32.11,140.89-48.16,2.42,1.25,4.82,2.5,7.24,3.75v13.36c-2.42-1.25-4.82-2.5-7.24-3.75-42.78,14.63-85.54,29.24-128.32,43.87"/>
      <path class="cls-15" d="M329.43,1013.67c-.13-.28-.25-.57-.35-.86v-13.36c1.96,5.37,6.78,9.11,12.28,9.54.38.04.77.05,1.14.05s.77-.01,1.14-.05c5.5-.44,10.32-4.18,12.28-9.54v13.36c-.11.29-.22.58-.35.86"/>
      <path class="cls-15" d="M348.9,1020.84c-1.62.84-3.4,1.37-5.26,1.51-.38.04-.77.05-1.14.05s-.77-.01-1.14-.05c-1.86-.14-3.64-.67-5.26-1.51"/>
      <line class="cls-15" x1="237.41" y1="851.75" x2="237.41" y2="851.57"/>
      <path class="cls-15" d="M198.12,964.99c2.89,3,4.67,7.09,4.67,11.58,0,9.22-7.49,16.71-16.71,16.71-7.36,0-13.62-4.77-15.84-11.37h-.01"/>
      <path class="cls-15" d="M180.64,960.77c-6.57,2.24-11.29,8.47-11.29,15.81,0,1.86.31,3.66.87,5.33-2.88-3-4.65-7.07-4.65-11.56,0-5.5,2.64-10.37,6.73-13.42,1.82,2.21,5.06,3.4,8.33,2.47"/>
      <path class="cls-15" d="M193.52,957.96c2.09,1.89,3.68,4.29,4.6,7.03-1.32-1.38-2.88-2.52-4.6-3.39"/>
      <path class="cls-15" d="M329.43,1013.67h3.13c1.96,0,3.54,1.58,3.54,3.54v28.43c0,1.96-1.58,3.54-3.54,3.54h-3.42c-1.95,0-3.54-1.58-3.54-3.54v-28.43c0-1.96,1.59-3.54,3.54-3.54h.29Z"/>
      <path class="cls-15" d="M193.52,955.01v6.59c-2.24-1.12-4.77-1.75-7.44-1.75-1.9,0-3.74.32-5.44.91v-1.38c.11-.02.2-.05.31-.08,3.28-1.12,6.56-2.24,9.84-3.36.91-.32,1.83-.63,2.74-.93Z"/>
      <path class="cls-15" d="M250.92,860.68h.01c1.13.14,2.24.4,3.29.77,2.15.74,4.09,1.9,5.74,3.39h.01"/>
      <path class="cls-15" d="M264.62,882.62c-2.23,6.59-8.47,11.35-15.83,11.35-9.24,0-16.71-7.48-16.71-16.71,0-4.51,1.77-8.58,4.66-11.57"/>
      <path class="cls-15" d="M241.35,862.29c-1.73.85-3.29,2.01-4.61,3.39.91-2.74,2.52-5.15,4.61-7.05"/>
      <path class="cls-15" d="M264.62,882.62c.58-1.69.88-3.49.88-5.37,0-4.93-2.13-9.35-5.52-12.42,3.07,1.4,6.12,2.82,9.19,4.23.08.65.12,1.3.12,1.96,0,4.51-1.78,8.59-4.67,11.59Z"/>
      <path class="cls-15" d="M250.92,860.68c-.7-.09-1.42-.14-2.13-.14-2.68,0-5.2.63-7.44,1.76v-6.03c.64.29,1.27.58,1.91.87,2.56,1.18,5.11,2.36,7.67,3.54Z"/>
      <path class="cls-15" d="M348.41,848.17c.14-.02.28-.06.42-.09"/>
      <path class="cls-15" d="M348.98,848.03s-.09.04-.14.05c-.19.05-.39.09-.59.14.05-.01.11-.02.17-.05.19-.04.38-.08.57-.14Z"/>
      <path class="cls-15" d="M348.24,848.22c-.09.02-.2.05-.29.07-.13.02-.25.05-.38.07l.67-.14Z"/>
      <path class="cls-15" d="M415.83,869.06c-11.41,5.24-22.82,10.49-34.23,15.73-3.35-1.25-6.71-2.51-10.06-3.76-.24-1.55-.48-3.09-.73-4.64,19.98-9.19,39.97-18.39,59.95-27.58,2.22-1.01,4.42-2.04,6.64-3.05,1.11-.51,2.23-1.03,3.34-1.53,1.55-.71,3.08-1.42,4.62-2.12.65-.46,1.62-1.3,2.03-2.61.14-.44.2-.87.2-1.3v13.36c0,.42-.06.86-.2,1.3-.41,1.31-1.38,2.15-2.03,2.61-.57.26-1.14.52-1.71.79"/>
      <path class="cls-15" d="M491.48,955.01c-42.78-14.63-85.54-29.24-128.32-43.87-2.42,1.25-4.82,2.5-7.24,3.75v-13.36c2.42-1.25,4.82-2.5,7.24-3.75,46.97,16.05,93.92,32.11,140.89,48.16,1.78.57,3.56.51,5.13-.02,2.31-.75,4.14-2.52,4.75-4.73.15-.52.22-1.07.22-1.63v13.22c.01.6-.07,1.19-.22,1.77-.24.87-.67,1.67-1.25,2.37"/>
      <line class="cls-15" x1="447.59" y1="851.57" x2="447.59" y2="851.75"/>
      <path class="cls-15" d="M514.78,981.91h-.01c-2.22,6.62-8.48,11.38-15.84,11.38-9.22,0-16.71-7.49-16.71-16.71,0-4.49,1.78-8.59,4.67-11.58"/>
      <path class="cls-15" d="M504.36,959.39c3.27.93,6.51-.26,8.33-2.47,4.09,3.05,6.73,7.93,6.73,13.42,0,4.49-1.77,8.56-4.65,11.56.57-1.67.87-3.47.87-5.33,0-7.34-4.72-13.56-11.29-15.81"/>
      <path class="cls-15" d="M491.48,961.61c-1.72.86-3.28,2.01-4.6,3.39.92-2.74,2.51-5.14,4.6-7.03"/>
      <path class="cls-15" d="M355.57,1013.67h.29c1.95,0,3.54,1.58,3.54,3.54v28.43c0,1.96-1.59,3.54-3.54,3.54h-3.42c-1.96,0-3.54-1.58-3.54-3.54v-28.43c0-1.96,1.58-3.54,3.54-3.54h3.13Z"/>
      <path class="cls-15" d="M504.36,959.39v1.38c-1.7-.59-3.54-.91-5.44-.91-2.68,0-5.2.63-7.44,1.75v-6.59c.91.31,1.83.61,2.74.93,3.28,1.12,6.56,2.24,9.84,3.36.11.04.2.06.31.08Z"/>
      <path class="cls-15" d="M425.02,864.83h.01c1.65-1.49,3.6-2.64,5.74-3.39,1.05-.37,2.16-.63,3.29-.77t.02-.01"/>
      <path class="cls-15" d="M448.27,865.68c2.89,3,4.66,7.07,4.66,11.57,0,9.24-7.48,16.71-16.71,16.71-7.36,0-13.6-4.75-15.83-11.35"/>
      <path class="cls-15" d="M425.02,864.83c-3.39,3.07-5.52,7.49-5.52,12.42,0,1.88.31,3.68.88,5.37-2.89-3.01-4.67-7.09-4.67-11.59,0-.66.04-1.31.12-1.96,3.07-1.42,6.12-2.83,9.19-4.23Z"/>
      <path class="cls-15" d="M443.65,858.62c.5.45.97.93,1.4,1.45h.01c1.4,1.62,2.5,3.51,3.2,5.6-1.32-1.38-2.88-2.54-4.61-3.39"/>
      <path class="cls-15" d="M443.65,856.27v6.03c-2.24-1.13-4.77-1.76-7.44-1.76-.72,0-1.43.05-2.12.13,1.75-.8,3.49-1.6,5.23-2.41.81-.38,1.62-.74,2.43-1.12.64-.29,1.27-.58,1.91-.87Z"/>
    </g>
  </g>
</svg>